<?xml version="1.0" encoding="UTF-8"?>
<svg width="1800" height="1200" clip-rule="evenodd" fill-rule="evenodd" image-rendering="optimizeQuality" shape-rendering="geometricPrecision" text-rendering="geometricPrecision" version="1.1" viewBox="0 0 1800 1200" xml:space="preserve" xmlns="http://www.w3.org/2000/svg">
 <defs>
  <style type="text/css">
   <![CDATA[
    .fil7 {fill:none}
    .fil1 {fill:#FEFEFE}
    .fil8 {fill:#2B2A29}
    .fil2 {fill:#FFED00}
    .fil5 {fill:#E31E24}
    .fil3 {fill:#E4B444}
    .fil0 {fill:#393185}
    .fil4 {fill:#FFED00;fill-rule:nonzero}
    .fil6 {fill:#E31E24;fill-rule:nonzero}
   ]]>
  </style>
 </defs>
 <g transform="matrix(.01 0 0 .01 -504.23 686.58)">
  
  <rect class="fil0" x="50423" y="-68658" width="1.8e5" height="1.2e5" fill="#393185"/>
  <g>
   <g>
    <g>
     <path class="fil1" d="m159635-28192v36770c0 931-1603 2712-2946 2712h-12944c-1130 0-2610 1754-3322 3407-711-1653-2191-3407-3322-3407h-12943c-1343 0-2946-1781-2946-2712v-36770z" fill="#fefefe"/>
     <path class="fil0" d="m159635-8605v17183c0 931-1603 2712-2946 2712h-12944c-1130 0-2610 1754-3322 3407-711-1653-2191-3407-3322-3407h-12943c-1343 0-2946-1781-2946-2712v-17212c1938 1855 4080 1796 6403 29v-29c1939 1855 4081 1796 6404 29v-29c1939 1855 4080 1796 6404 29v-29c1938 1855 4080 1796 6404 29v-29c1938 1855 4080 1796 6404 29v-29c1938 1855 4080 1796 6404 29z" fill="#393185"/>
    </g>
    <g>
     <path class="fil2" d="m140684-10575 58-4131c8-565 1005-1043 2115-844-681 138-1705 214-1679 844l474 11718c169 4173 8652 1502 5780-4578 1135 1078 2163 2278 3031 3660-1791 2563-4587 4477-10040 4675-5452-198-8248-2112-10039-4675 868-1382 1896-2582 3031-3660-2872 6080 5611 8751 5780 4578l474-11718c26-630-998-706-1680-844 1111-199 2108 279 2116 844l58 4131c18 1291 502 1291 521 0z" fill="#ffed00"/>
     <path class="fil3" d="m148282-6712c801 851 1535 1778 2181 2806-1791 2563-4587 4477-10040 4675-5452-198-8248-2112-10039-4675 868-1382 1896-2582 3031-3660-2048 3693 174 7031 4256 7180 1094 40 2752-508 2752-1815v-7192c221-13 475 159 479 358l140 6791c65 3176 9785 2248 7240-4468z" fill="#e4b444"/>
     <path class="fil4" d="m143323-19807c761 614 1232 1467 1232 2414 0 789-341 1641-917 2268-522 567-1236 954-2068 954v-540c667 0 1245-316 1671-779 87-95 167-195 241-299h-6117c74 104 154 204 241 299 426 463 1004 779 1671 779v540c-832 0-1546-387-2068-954-576-627-917-1479-917-2268 0-947 470-1800 1232-2414 1607-1298 4192-1298 5799 0zm396 3617c191-385 296-804 296-1203 0-776-394-1481-1030-1994-1409-1137-3714-1137-5123 0-637 513-1030 1218-1030 1994 0 399 105 818 296 1203z" fill="#ffed00" fill-rule="nonzero"/>
     <path class="fil5" d="m134989-11951h2584c281-271 436-503 482-707h-2466c314-348 629-696 943-1044h3203c-257 582-568 1190-932 1751h4696c281-271 435-503 481-707h-2466c315-348 629-696 944-1044h3202c-256 582-567 1190-932 1751h1065l232-371-268-506 546-874h1580l377 708-369 672 351 660-673 1077h-1820l-372-701 161-257h-1091c-260 356-545 682-853 958h-2022c602-361 1080-677 1446-958h-4496c-261 356-545 682-853 958h-2023c603-361 1080-677 1446-958h-2103v329h693l-694 629h-2015v-629h650v-951h-650v-493l1151-1044h2015l-1150 1044zm11619 864c187-680 445-678 694 0h-694zm102-1850c187 680 446 678 695 0h-695z" fill="#e31e24"/>
    </g>
    <path class="fil2" d="m160176-25954v34532c0 642-532 1542-1266 2217-638 588-1449 1035-2221 1035h-12944c-375 0-854 325-1330 812-594 609-1144 1451-1496 2268l-496 1151-496-1151c-352-817-902-1659-1496-2268-475-487-954-812-1330-812h-12943c-772 0-1583-447-2222-1035-733-675-1265-1575-1265-2217v-34532c-510-774-1224-1251-2154-1415l986-1363h41840l987 1363c-930 164-1644 641-2154 1415zm-541-2238v36770c0 931-1603 2712-2946 2712h-12944c-1130 0-2610 1754-3322 3407-711-1653-2191-3407-3322-3407h-12943c-1343 0-2946-1781-2946-2712v-36770z" fill="#ffed00"/>
   </g>
   <g>
    <path class="fil2" d="m123082-45193c1715 1657 2773 3554 2510 5890-318 2830-1846 4537-4410 5261-7203 1366-5651-5941-10093-4861 2296-3033 6834-2955 6877 1258 16 1653 1252 2724 2902 2202 1761-558 2680-1909 2830-3860 173-2245-390-3944-1548-5343-1057 651-2071 1387-3038 2217-1026 880 95 1542 1219 1125 1197-445 1468-1441 1694-2545 44-217 501-168 515 36 111 1619-535 2839-1944 3345-908 326-2744 292-3018-834-449-1852-1303-3378-2716-4613-414-362-520-1107-85-1515 500-471 1012-918 1534-1343-498-132-1114-255-1796-248-3025 32-4419 644-5693 2122 963-163 1791-123 2487 114-1666 1012-2966 2038-3602 3088 1212-589 2104-688 2745-400-4437 2769-453 2492-7091 7749-753-1303-634-2672 100-4089-358 47-715 95-1072 143 121-1878 927-3336 2230-4489-2601 1191-4089 6811-1852 10357 1602-2341 3264-3913 5018-4310-763 933-876 2222-457 3803 3340-6988 9742 560 1773 915 3302-1767 444-4073-606-294-109 396-575 652-910 1037 2555 1338 4584 2846 1659 5947-154-1014-590-1701-1430-1915 1888-1815-156-2099-627-1941-1483 499 523 3529-5234 3914-422 976-746 1976-973 3002 1588-1684 3245-2930 4947-3889-1192 2821 1083 3656-4032 6862 2002-261 2286-1747 3980-1737 2424 14 2390 3699 5713 3939-2352 1668-6773-2683-9550 1687 9607-2735 4713 3281 9350 5089-4264 352-5465-4324-9607-2058 142 321 1084 414 1565 265 1755-545 2097 689 1023 2004-722 885-586 2271-243 3049-2740-2882-4771-263-5833 9893 2178-2675 4140 2333 6690 600-1274 2479-3927 1109-5283 3214-1086 1687-899 3865 308 7137 143 387 298 774 467 1161-1644-5796 1495-7963 4454-10006 2160-1490 4222-2913 4174-5661-42-2360-1233-3896-2767-4648-86-43-174-83-263-121l-8-3c-589-248-1220-387-1850-418-727-36-1453 72-2111 319-1398 525-2493 1685-2651 3449-88 987 131 1737 599 2267 412 468 1021 770 1783 918 112-204 271-417 485-636-310-277-507-534-617-767-356 16-566 113-664 235-41 50-61 104-62 156-2 52 14 103 44 148 68 100 207 168 387 150 60-6 112 37 118 97 6 59-37 111-96 117-267 27-478-83-587-243-56-82-85-178-82-276 3-97 38-196 111-285 124-153 365-279 753-309-395-1529 3290-1749 3154 977 1148-9 2025 1811 400 1087-475 2784-4289 1776-3442-251-783-161-1412-482-1847-975-507-575-745-1378-651-2429 166-1858 1318-3079 2789-3632 686-258 1441-369 2197-332 485 24 971 109 1439 257-537-563-872-1152-1021-1717-139-526-117-1031 53-1475 170-445 488-826 940-1103 544-334 1283-516 2192-474 773 36 1436 297 1916 824 439 482 721 1183 789 2136 67 935-395 1524-1042 1809-274 120-581 185-895 197-311 12-630-27-927-116-785-232-1433-802-1468-1650-32-745 367-1259 857-1500 184-91 382-143 575-154 196-11 386 21 554 97 347 157 592 498 573 1042-2 63-9 122-21 177-42 185-137 322-273 411-131 87-299 127-489 120-83-3-171-15-262-35-58-13-95-70-82-128s70-95 128-82c78 17 153 27 223 30 146 5 271-23 364-84 89-59 152-151 180-279 10-42 15-87 17-137 15-442-176-716-447-839-135-61-292-86-453-78-164 10-334 54-492 132-421 207-764 652-737 1299 31 741 611 1243 1313 1451 276 82 571 119 859 108 287-11 567-70 816-180 568-249 973-769 914-1596-65-901-327-1559-733-2006-439-482-1051-721-1766-753-864-40-1561 130-2070 442-411 251-698 595-852 996-153 402-173 862-46 1343 210 795 834 1713 1580 2078 1601 786 2844 2385 2887 4838 50 2864-2058 4319-4266 5842-3031 2092-6253 4316-4117 10581 1556 4591 7165 9697 10939 12640-448 115-896 229-1344 343-495-181-991-362-1487-543-848-496-1696-991-2544-1487-1487 200-2974 144-4461-114 466-458 1079-781 1773-1029-5023 219-8559-7711-10694-2774-818-1752-496-3090 1316-3889-2668-978-1441-3312-3303-4360 507-168 981-7 1430 415-301-927-266-1918 43-2960 549 894 1252 1685 2259 2274-9-385 80-736 300-1044 1004 580 1908 1360 2759 2244-743-1687-2068-3240-4946-4431-4728 2349-3851-3079-372-1702-386-2367 604-3360 2659-3288-369-850-2502-309-3660-772-2232-891-2316-4060-4031-5575 2658-382 4880 29 6319 1858-104-3677-7543-1920-7778-5632-122-1944 1747-2958 3775-2488 3119 723 1587 4327-1230 2716-109 1988 3150 85 4203 1058-68-1644 393-2530 1201-2916 379 3856 3447 2290 3403 7920 1125-2971 2131-12212-5762-8321 581-840 502-1506 672-2344 230-1133 3696-498 3503-1801-99-670-777-364-2180 271-2675 1210-4523 371-5998-1015 4480-190 2870-4263 6705-4346 2268-49 2944 2138 3689 1144 244-326-127-996-1108-1275-627-178-1488-115-2288-326-1898-502 398-4280-2173-4475 2017-1225 4546-399 3775 2066 3426 142-1151-5806-5033-2488 1426 3026-3955 4348-3688 1773 511-4935 9681-6533 12237-2888 434-1130 615-2329 629-3574-4360 2897-4246-4470-7033-1601 4293 1506-2362 4318-2059 414 288-3719 7780-6356 10750-3988 10-305 20-610 29-915-4407-6368 544-15753 9571-16115 607-25 3468 8 5019 538 11962-9405 35443-9405 47405 0 1551-530 4411-563 5018-538 9028 362 13979 9747 9572 16115 9 305 19 610 28 915 2971-2368 10462 269 10751 3988 303 3904-6352 1092-2059-414-2788-2869-2673 4498-7034 1601 15 1245 196 2444 629 3574 2557-3645 11726-2047 12238 2888 267 2575-5114 1253-3689-1773-3881-3318-8458 2630-5032 2488-771-2465 1757-3291 3774-2066-2571 195-274 3973-2173 4475-800 211-1660 148-2287 326-981 279-1352 949-1108 1275 745 994 1420-1193 3689-1144 3835 83 2225 4156 6704 4346-1475 1386-3322 2225-5997 1015-1403-635-2081-941-2180-271-193 1303 3273 668 3503 1801 169 838 90 1504 672 2344-7894-3891-6887 5350-5762 8321-45-5630 3023-4064 3403-7920 808 386 1269 1272 1201 2916 1052-973 4312 930 4203-1058-2817 1611-4349-1993-1230-2716 2027-470 3897 544 3774 2488-234 3712-7673 1955-7777 5632 1439-1829 3660-2240 6319-1858-1715 1515-1799 4684-4031 5575-1158 463-3291-78-3660 772 2054-72 3044 921 2659 3288 3479-1377 4356 4051-372 1702-2879 1191-4204 2744-4946 4431 851-884 1755-1664 2759-2244 220 308 309 659 300 1044 1007-589 1709-1380 2259-2274 309 1042 344 2033 43 2960 449-422 923-583 1429-415-1861 1048-634 3382-3302 4360 1812 799 2134 2137 1315 3889-2135-4937-5670 2993-10693 2774 694 248 1307 571 1773 1029-1487 258-2974 314-4461 114-848 496-1696 991-2545 1487-495 181-991 362-1487 543-447-114-895-228-1343-343 3774-2943 9382-8049 10938-12640 2137-6265-1086-8489-4116-10581-2208-1523-4316-2978-4266-5842 43-2453 1286-4052 2887-4838 746-365 1370-1283 1579-2078 128-481 108-941-46-1343-153-401-441-745-851-996-509-312-1206-482-2070-442-716 32-1327 271-1766 753-406 447-668 1105-733 2006-59 827 346 1347 914 1596 249 110 529 169 815 180 289 11 583-26 859-108 703-208 1283-710 1314-1451 27-647-316-1092-737-1299-159-78-328-122-492-132-161-8-318 17-454 78-271 123-461 397-446 839 1 50 7 95 16 137 29 128 92 220 181 279 93 61 218 89 364 84 70-3 144-13 223-30 58-13 115 24 128 82s-24 115-82 128c-91 20-179 32-263 35-190 7-357-33-488-120-136-89-232-226-273-411-12-55-19-114-22-177-18-544 227-885 574-1042 167-76 358-108 554-97 193 11 391 63 575 154 490 241 889 755 857 1500-35 848-683 1418-1468 1650-298 89-616 128-928 116-313-12-620-77-894-197-647-285-1109-874-1042-1809 68-953 350-1654 788-2136 480-527 1144-788 1917-824 909-42 1648 140 2191 474 453 277 771 658 941 1103 170 444 192 949 53 1475-149 565-484 1154-1021 1717 468-148 954-233 1438-257 757-37 1512 74 2198 332 1471 553 2623 1774 2789 3632 94 1051-145 1854-651 2429-435 493-1064 814-1847 975 846 2027-2968 3035-3442 251-1625 724-748-1096 400-1087-136-2726 3549-2506 3153-977 389 30 630 156 754 309 72 89 107 188 111 285 3 98-26 194-82 276-109 160-320 270-587 243-59-6-102-58-96-117 5-60 58-103 117-97 181 18 320-50 388-150 30-45 46-96 44-148-1-52-21-106-62-156-98-122-308-219-665-235-109 233-306 490-616 767 214 219 373 432 485 636 762-148 1370-450 1783-918 467-530 687-1280 599-2267-158-1764-1253-2924-2651-3449-658-247-1384-355-2111-319-630 31-1261 170-1850 418l-8 3c-89 38-177 78-264 121-1533 752-2725 2288-2766 4648-48 2748 2014 4171 4174 5661 2959 2043 6098 4210 4454 10006 168-387 324-774 466-1161 1208-3272 1395-5450 308-7137-1355-2105-4008-735-5283-3214 2551 1733 4513-3275 6691-600-1062-10156-3093-12775-5833-9893 343-778 478-2164-243-3049-1074-1315-732-2549 1023-2004 480 149 1423 56 1565-265-4143-2266-5343 2410-9607 2058 4636-1808-257-7824 9349-5089-2776-4370-7197-19-9549-1687 3322-240 3289-3925 5713-3939 1694-10 1977 1476 3979 1737-5114-3206-2839-4041-4031-6862 1702 959 3359 2205 4946 3889-226-1026-550-2026-972-3002-5757-385-3752-3415-5234-3914-471-158-2515 126-627 1941-841 214-1276 901-1430 1915-2925-3101-897-4609 1659-5947-335-385-801-641-911-1037-1049-3779-3908-1473-605 294-7969-355-1567-7903 1773-915 419-1581 305-2870-458-3803 1755 397 3417 1969 5018 4310 2238-3546 749-9166-1851-10357 1303 1153 2109 2611 2230 4489-357-48-715-96-1072-143 734 1417 853 2786 100 4089-6638-5257-2654-4980-7091-7749 641-288 1533-189 2745 400-637-1050-1936-2076-3603-3088 697-237 1525-277 2488-114-1274-1478-2668-2090-5693-2122-683-7-1298 116-1796 248 522 425 1033 872 1534 1343 434 408 329 1153-86 1515-1412 1235-2266 2761-2716 4613-273 1126-2110 1160-3017 834-1409-506-2055-1726-1944-3345 14-204 470-253 515-36 226 1104 497 2100 1694 2545 1124 417 2245-245 1219-1125-967-830-1981-1566-3038-2217-1159 1399-1722 3098-1549 5343 151 1951 1070 3302 2831 3860 1650 522 2886-549 2902-2202 43-4213 4581-4291 6877-1258-4442-1080-2890 6227-10093 4861-2564-724-4092-2431-4411-5261-263-2336 796-4233 2511-5890-9081-5057-25602-5057-34683 0zm55837 41513c829-55 1818-921 1487-1287-513-568-882 575-1487 1287zm-525-177c829-654 1241-2274 631-2419-946-225-509 1237-631 2419zm-880-67c639-1077 406-3045-331-2946-1143 153-37 1586 331 2946zm-534 188c-126-1345-1581-2913-2160-2359-900 861 975 1407 2160 2359zm-616 347c-650-1053-2483-1748-2732-1058-389 1073 1373 758 2732 1058zm-545 960c-885-865-2831-1099-2907-368-118 1134 1516 405 2907 368zm9 498c-929-319-2405 174-2212 724 301 855 1226-224 2212-724zm9889 15532c-79 576-199 1127-356 1652l-925-925c423-266 850-507 1281-727zm-527 2169c-65 181-135 359-210 534l-1400-1400c146-105 292-207 439-306zm-315 768c-87 189-180 374-279 555l-1683-1683c156-125 313-246 471-363zm-400 772c-118 202-242 398-374 589l-1893-1893c172-154 345-302 518-445zm-514 787c-105 144-214 285-328 423l-1988-1988c128-125 257-247 386-365zm-561 695c-155 175-318 343-487 506l-2005-2005c160-175 322-345 484-509zm-661 671c-152 139-309 274-472 405l-1926-1926c135-161 270-318 407-471zm-662 553c-200 153-408 300-622 440l-1735-1735c155-204 311-402 468-594zm-829 572c-180 112-364 219-553 321l-1487-1487c122-173 244-342 367-507zm-1007 554c-234 114-475 222-722 323l-1002-1001c137-217 274-428 412-634zm-965 419c-541 208-1111 386-1708 532 269-497 542-971 819-1421zm-9737 4750c201 48 401 96 601 143 1297-878 2620-1699 3974-2444 374-978 890-1906 1530-2788 257 276 419 648 486 1115 1086-3222 3831-5585 5232-8592 154 180 275 401 343 686 576-2774 2392-3811 4032-5597 799-870-384-1758-1344-1008-1244 971-2039 3372-3374 5733-2851 5041-6720 9201-11480 12752zm-67612-29991c-828-55-1817-921-1486-1287 513-568 881 575 1486 1287zm525-177c-828-654-1240-2274-631-2419 947-225 510 1237 631 2419zm881-67c-640-1077-406-3045 330-2946 1144 153 38 1586-330 2946zm534 188c126-1345 1581-2913 2160-2359 900 861-976 1407-2160 2359zm616 347c650-1053 2482-1748 2732-1058 389 1073-1373 758-2732 1058zm545 960c885-865 2830-1099 2907-368 118 1134-1516 405-2907 368zm-9 498c929-319 2405 174 2211 724-300 855-1225-224-2211-724zm-9890 15532c80 576 199 1127 357 1652l925-925c-423-266-850-507-1282-727zm527 2169c66 181 136 359 211 534l1400-1400c-146-105-292-207-439-306zm316 768c87 189 180 374 278 555l1684-1683c-157-125-314-246-471-363zm400 772c117 202 242 398 374 589l1893-1893c-172-154-345-302-518-445zm514 787c105 144 214 285 327 423l1989-1988c-128-125-257-247-386-365zm561 695c155 175 318 343 487 506l2005-2005c-161-175-322-345-484-509zm661 671c152 139 309 274 471 405l1926-1926c-134-161-270-318-406-471zm661 553c201 153 408 300 623 440l1735-1735c-155-204-311-402-468-594zm830 572c179 112 363 219 552 321l1487-1487c-121-173-243-342-366-507zm1007 554c234 114 475 222 722 323l1001-1001c-136-217-273-428-411-634zm965 419c541 208 1111 386 1707 532-268-497-541-971-819-1421zm9736 4750c-200 48-400 96-600 143-1297-878-2620-1699-3974-2444-374-978-890-1906-1530-2788-258 276-419 648-486 1115-1087-3222-3831-5585-5232-8592-155 180-275 401-344 686-575-2774-2391-3811-4031-5597-799-870 383-1758 1344-1008 1243 971 2039 3372 3374 5733 2850 5041 6720 9201 11479 12752z" fill="#ffed00"/>
    <path class="fil2" d="m167887 26591c8393-6976 13318-13101 11291-18616-1478-4023-5839-2035-6373-5801-1112 1412-1283 2599-1034 3598 668 2676 3530 3395 2337 4434-770 671-924-781-1959-1607-550-438-1401-808-2832-878 2405 2528 114 3875 902 5515 908 1889 4775 1282 2872 3205-2455-2819-5366-595-6033 3660 4770-4492 5887 1863-205 6117 343 124 691 250 1034 373z" fill="#ffed00"/>
    <path class="fil6" d="m167851 26114c-45 39-113 35-152-9-40-45-35-113 9-152 1211-1073 2715-2612 3744-3899 189-467 308-1021 358-1658 52-649 32-1383-56-2200-7-60 36-113 96-119 59-6 112 37 118 96 90 831 110 1578 57 2239-33 415-94 797-185 1145 340-443 665-895 974-1352 116-868 2-1574-267-2082-185-350-445-605-754-752-309-148-669-188-1055-109-556 114-1165 474-1757 1117-40 44-109 46-152 6-44-40-47-109-7-152 624-678 1275-1060 1873-1182 434-89 840-43 1191 125 351 167 644 454 852 846 245 462 370 1071 329 1802 464-712 887-1437 1264-2164 596-2652-281-3145-1190-3656-622-350-1259-708-1513-1690-15-58 20-116 77-131 58-15 117 19 131 77 231 892 828 1228 1411 1556 885 497 1741 979 1435 3135 51-110 102-219 152-329 66-147 130-294 193-441 351-2163-536-2723-1542-3357-343-216-698-440-1030-737-805-720-896-1350-972-1880-59-404-108-744-510-1003-50-32-64-99-32-149s99-65 149-33c485 313 540 698 606 1155 72 494 157 1082 902 1749 317 284 666 504 1002 716 940 592 1782 1124 1720 2806 126-337 240-672 342-1005 79-847-54-1563-393-2154-341-592-892-1062-1645-1412-54-25-78-89-53-143 25-55 89-78 143-53 795 369 1378 868 1741 1501 244 424 388 905 431 1447 456-1865 487-3638-45-5159-487-1391-1192-1877-1845-2326-558-385-1080-744-1414-1587-21-55 6-118 61-140 56-22 118 5 140 61 310 782 805 1123 1336 1489 680 468 1415 974 1925 2432 386 1105 485 2335 345 3634 207-272 382-585 523-939 192-481 324-1038 396-1671 6-59 60-102 119-95 59 6 102 60 95 119-74 651-210 1227-410 1727-196 491-453 908-772 1251-153 1070-461 2182-897 3305 790-822 1602-1679 2197-2863 27-53 92-74 145-47s75 91 48 145c-622 1237-1468 2117-2285 2967-110 115-220 229-326 340-62 146-126 292-192 439-155 344-323 689-500 1033l-1 3-2 2c-444 859-953 1714-1516 2549-3 4-6 8-8 12-428 634-887 1257-1371 1863l-3 5-2 2c-1039 1300-2554 2851-3776 3934z" fill="#e31e24" fill-rule="nonzero"/>
    <path class="fil5" d="m173139-47516c1857 400 2965 1129 3260 2216-1605-200-2609-1025-3260-2216zm7273 19600c6624 2137 3065-7192-1415-3603 1602 1090 2138 2284 1415 3603zm-1497-2788c-2642-2218-5490-3103-6920-515 1249-866 2554-525 3917 1087 763-489 1783-655 3003-572zm-5176-2602c-624-3562 4554-2275 4353 1301-1458-872-2894-1381-4353-1301zm1373-8049c1548 1031 2235 2362 2030 4003-1304-886-2061-2163-2030-4003zm-272-2687c431 1590 1438 2641 3088 3088-357-1682-1434-2665-3088-3088z" fill="#e31e24"/>
    <path class="fil6" d="m182449-6369c6 59-36 112-96 119-59 6-112-37-118-96-48-446-95-892-143-1337-64-602-127-1195-185-1775-266-602-556-1128-870-1584-315-459-653-847-1011-1168-45-40-48-108-9-152 40-45 108-48 152-9 373 334 722 735 1046 1207 222 322 432 678 630 1069-2-6-2-13-2-19-53-552-101-1091-142-1614-549-913-1113-1412-1691-1478s-1188 302-1829 1125c-37 47-105 55-151 18-47-36-55-104-19-151 692-886 1366-1282 2023-1207 569 65 1113 483 1633 1241-18-245-34-486-47-723-156-352-325-641-508-871-181-228-375-396-581-509-52-29-71-94-42-147 28-52 94-71 146-42 231 127 447 313 646 564 108 136 212 291 310 465-10-231-19-458-25-680-1375-1876-2770-2966-4186-3178s-2865 455-4351 2095c-40 44-108 47-152 7-44-39-47-108-8-152 1540-1697 3053-2387 4542-2164 1413 212 2794 1247 4147 3022-2-94-3-188-3-280-367-665-631-1331-802-1987-491-1169-1175-2053-2016-2702-844-651-1849-1068-2980-1300-58-11-96-68-84-127 12-58 69-95 127-84 1163 239 2197 669 3068 1341 638 491 1187 1111 1634 1880-858-1646-1867-2704-3013-3224-1183-538-2518-505-3989 39-56 20-118-9-139-64-20-56 8-118 64-139 1526-564 2915-595 4152-33 1115 507 2102 1495 2947 3008-47-707 11-1393 163-2039 1-673-92-1246-271-1725-179-476-445-860-791-1158-45-39-50-107-11-152s107-50 152-11c373 322 659 735 851 1245 128 341 214 724 256 1153 230-670 563-1289 982-1836 523-683 1180-1254 1937-1674 1371-760 3069-1024 4895-556 58 15 93 73 78 131-15 57-73 92-131 77-1769-453-3412-199-4738 536-730 405-1365 957-1870 1617-506 661-882 1429-1097 2268-273 1065-285 2244 29 3459l3 12c136 523 333 1054 596 1585 33-2219 405-3770 1431-4177 56-22 118 5 140 60 22 56-5 118-60 140-994 394-1316 2035-1304 4378 4 16 4 33 0 49 2 194 5 393 11 596 3 14 3 28 1 42 11 382 29 780 54 1191 2 10 3 21 2 32 22 370 49 750 80 1140 1 7 1 13 1 20 20 248 41 500 63 755 430-2396 1261-3628 2358-4087 1224-513 2761-56 4434 821 52 27 73 93 45 145-27 53-92 73-145 46-1620-849-3099-1296-4251-813-1151 482-1995 1900-2358 4784l34 342c143-581 321-1073 522-1503 275-589 594-1061 929-1485 37-47 104-55 151-19 47 37 55 105 18 152-327 414-636 873-903 1444-266 568-490 1249-647 2110l67 644c297-1263 821-2054 1542-2431 851-444 1964-305 3291 327 54 26 77 91 51 144-25 54-90 77-144 51-1264-602-2313-741-3098-331-785 409-1321 1374-1564 2980zm427-14850c-11 58-68 96-126 85-59-11-97-68-85-127 114-577 337-1083 679-1511 341-428 799-777 1384-1039 54-25 118 0 142 54 25 54 0 118-54 142-553 248-984 576-1303 977-320 400-529 876-637 1419zm-7484 5051c-45 38-114 33-152-13-38-45-33-113 13-152 436-368 891-562 1363-597 469-35 951 89 1445 356 52 28 72 93 44 146-28 52-94 72-146 44-457-247-901-362-1328-331-425 32-839 209-1239 547z" fill="#e31e24" fill-rule="nonzero"/>
    <path class="fil6" d="m190526-3847c-59-5-103-57-99-116 5-60 58-104 117-99 1193 102 2032-434 2439-1120 166-279 261-582 278-876 18-291-40-572-178-811-266-458-832-766-1739-695-60 5-112-40-116-99-4-60 40-112 100-116 1003-78 1637 276 1941 802 160 277 227 600 208 931-20 329-124 666-308 974-445 749-1355 1335-2643 1225zm-8471 14555c-21 56-83 84-139 63-48-18-76-68-68-117 194-1999 564-3269 1020-4290 132-973 55-1789-244-2440-296-649-815-1139-1566-1461-55-23-80-86-57-141s87-80 141-57c803 344 1358 870 1678 1569 253 552 357 1209 318 1969 47-92 95-182 143-272 62-2001-210-3117-742-3607-517-476-1308-352-2293 123-295 142-608 178-925 161h-3c-308-17-617-85-915-153-58-14-95-71-81-129 13-59 71-95 129-82 290 67 590 133 881 149h1c283 15 562-16 820-141 1066-513 1935-636 2532-86 540 496 834 1547 820 3366 96-167 194-334 293-502 376-640 768-1305 1142-2176 109-253 180-528 226-821l1-8c11-69 20-138 28-209v-2l1-5c31-274 44-561 48-856l1-11c3-274 0-557-4-844-23-1798-48-3769 1695-5208 45-38 114-32 151 14 38 46 32 114-14 152-1591 1314-1638 3125-1619 4811 281-1099 735-1963 1338-2622 788-862 1828-1374 3066-1606 58-11 115 28 126 86 11 59-28 115-86 126-1194 224-2193 714-2947 1539-756 827-1269 1993-1491 3569-4 239-13 473-32 700 295-124 561-282 803-465 288-218 543-474 776-757 37-46 105-52 151-14 46 37 53 105 15 151-242 294-510 562-812 791-287 217-604 400-959 537l-3 23c1268-129 2361-490 3300-1057 972-586 1781-1395 2447-2395 33-49 100-63 149-30 50 33 63 100 31 149-684 1027-1515 1858-2516 2461-211 128-429 245-655 352 515-164 1037-277 1568-335 59-6 113 37 119 96s-37 112-96 119c-844 92-1668 327-2473 689-801 359-1583 845-2349 1440-312 656-631 1199-940 1725-769 1306-1473 2503-1827 5114 1021-2544 1956-4109 2720-4829 335-316 643-475 919-490 290-15 535 125 730 409 294 430 470 1207 500 2285 6 213 163 349 371 531l32 28c45 39 50 107 11 152-40 45-108 50-153 11l-32-28c-249-217-435-379-444-688-29-1035-192-1773-463-2169-150-218-332-326-541-315-224 11-486 152-782 431-818 770-1843 2552-2970 5527zm3311-8963c-49 280-121 546-228 794l-27 64c662-486 1338-891 2027-1205-551 170-1141 286-1772 347z" fill="#e31e24" fill-rule="nonzero"/>
    <path class="fil7" d="m169539 26311c201 48 401 96 601 143 1297-878 2620-1699 3974-2444 374-978 890-1906 1530-2788 257 276 419 648 486 1115 1086-3222 3831-5585 5232-8592 154 180 275 401 343 686 576-2774 2392-3811 4032-5597 799-870-384-1758-1344-1008-1244 971-2039 3372-3374 5733-2851 5041-6720 9201-11480 12752z" fill="none"/>
    <path class="fil2" d="m154106 35350c157 964-791 1768-1763 1715-1317-73-2258-1251-1701-3056 442-1434 1800-2326 4188-2502 1851-137 3514-587 5063-1321-3980-305-7500-21-9796 2436-1020 1090-1550 3369-513 4607 2188 2612 7049-1043 4260-2695 152 297 243 578 262 816zm5788-5164c21 369 13 752-31 1150 1920-1282 1596 181 4346 571-621 342-1172 716-1544 1173 1091 1295 2409 2020 3545 1143-2302-767-1390-2344 15-2537 1391-192 2928 109 1987 2795-379 1080-2214 1739-4318 815 131 380 365 706 658 1e3-1958-158-3594-799-4789-2101-946 1274-1866 1732-2774 1787 1152-1593 424-2856-2158-3331-2064-380-4263 1138-3846 2687 396 1473 1786 1685 2389 711-1744-95-1542-1747 9-2119 1421-340 2606-352 2691 1405 71 1452-1373 3002-2373 3259-1955 504-3535 255-4517-950-1644-2017 228-4606-427-7064-203-760-441-1502-717-2221 8554-8707 30329 3267 32609-5361l1116-57c0 2416-3932 3860-3003 7076-5522 2507-12740 638-18868 169z" fill="#ffed00"/>
    <path class="fil6" d="m150949 34070c-19 56-80 86-136 67-57-19-87-80-68-136 815-2407 3515-2110 6387-1751 400-85 773-228 1113-438 345-213 659-497 937-859 36-47 103-56 151-20 47 36 56 104 20 151-294 383-627 684-995 911-214 132-440 239-676 324 1929 237 3885 426 5314-240 54-26 118-2 144 52 25 54 1 118-53 144-965 449-2144 525-3390 457 3106 1877 5065 2298 6301 2205 740-480 1155-896 1357-1239 125-214 166-396 151-545-14-141-79-254-167-336-86-79-194-130-300-151-143-27-295 65-383 185-32 43-55 90-64 134-7 35-5 69 9 96 30 57 118 99 288 103 60 1 107 51 105 110-1 60-50 107-110 105-261-6-409-95-474-217-39-74-46-157-29-241 15-75 52-150 102-219 131-176 366-312 596-267 143 27 289 96 406 205 124 115 216 274 236 472 19 191-30 418-181 675-180 307-513 664-1063 1063 776-162 1183-537 1395-732l43-39c44-41 112-38 152 6 41 44 38 112-6 152l-43 39c-265 245-821 757-1960 851-10 3-20 4-30 3-1330 101-3443-363-6796-2450l-156-12c306 166 617 376 921 613 643 500 1262 1119 1753 1678 39 44 35 113-10 152-44 40-113 35-152-10-484-549-1092-1158-1723-1649-497-387-1007-701-1477-853-139-15-277-31-416-48 218 216 373 484 469 770 153 457 154 959 13 1359-20 56-81 86-138 66-56-20-85-82-65-138 126-356 124-807-14-1218-120-358-343-684-674-889l-318-39c-2834-355-5524-691-6296 1588z" fill="#e31e24" fill-rule="nonzero"/>
    <path class="fil5" d="m177951 26368-3017 300-28 715 815 900-944 1459v657l2802-472-71-1e3-1073 186 386-844-428-729 1529-272zm-28545 4858 157-3918 465-221 1201 979 421-1501 522-172 1445 3199-1038 252-693-1242-228 1001-944-601-169 1607zm4489-1852 314-3589 1352-41 410 1235 404 57 365 722-401 150 580 1336-1201-56-229-400h-365l-429 623zm1040-2084-40 962 558-222-192-571zm2362 1949 186-3711 715-7 1558 1287v786l-1601 822-18 829zm844-1752-15-801 465 14 314 322-14 436zm3030-2074-372 3746-800 14 372-3724zm68 3785 801 200 872-757 386-15-15 830 915-29-128-1344 471-243-157-800-314 28-286-1286-1015-29zm2051-1193-571 78 193-779 357-350zm3782 1965 400-3431-2430-500-515 3502 858 172 429-2716 543 43-257 2816zm486-1944 1072-1344 915-14 843 1329-28 872-1030 1258-872 15-900-1387zm838 224 437-547 373-6 344 542-12 355-419 513-356 6-367-565zm1721 2020 1086 29 586-1644 100 1658h1144l-615-3559-1029-29zm3259 43 1087 15 57-3617h-915z" fill="#e31e24"/>
    <path class="fil2" d="m112960 26591c-8394-6976-13319-13101-11292-18616 1479-4023 5839-2035 6374-5801 1111 1412 1283 2599 1034 3598-668 2676-3530 3395-2337 4434 770 671 924-781 1959-1607 550-438 1400-808 2832-878-2405 2528-114 3875-903 5515-907 1889-4774 1282-2871 3205 2455-2819 5366-595 6033 3660-4770-4492-5887 1863 204 6117-343 124-690 250-1033 373z" fill="#ffed00"/>
    <path class="fil6" d="m112996 26114c45 39 113 35 152-9 39-45 35-113-9-152-1211-1073-2715-2612-3744-3899-189-467-308-1021-358-1658-52-649-32-1383 56-2200 6-60-37-113-96-119s-112 37-118 96c-90 831-110 1578-58 2239 33 415 95 797 185 1145-339-443-664-895-973-1352-116-868-3-1574 266-2082 186-350 446-605 755-752 309-148 669-188 1055-109 555 114 1165 474 1757 1117 40 44 108 46 152 6s47-109 6-152c-624-678-1274-1060-1872-1182-434-89-840-43-1191 125-351 167-645 454-852 846-245 462-370 1071-329 1802-464-712-888-1437-1264-2164-596-2652 280-3145 1189-3656 623-350 1260-708 1514-1690 15-58-20-116-77-131-58-15-117 19-132 77-230 892-827 1228-1410 1556-885 497-1741 979-1435 3135-52-110-102-219-152-329-66-147-131-294-193-441-351-2163 536-2723 1542-3357 342-216 698-440 1030-737 805-720 896-1350 972-1880 59-404 108-744 509-1003 50-32 65-99 33-149s-99-65-149-33c-485 313-540 698-607 1155-71 494-156 1082-901 1749-317 284-666 504-1002 716-940 592-1783 1124-1720 2806-126-337-240-672-342-1005-80-847 54-1563 393-2154 341-592 891-1062 1645-1412 54-25 77-89 52-143-24-55-89-78-143-53-794 369-1377 868-1741 1501-243 424-387 905-430 1447-456-1865-487-3638 45-5159 487-1391 1192-1877 1844-2326 559-385 1081-744 1414-1587 22-55-5-118-60-140-56-22-119 5-141 61-309 782-805 1123-1335 1489-680 468-1416 974-1925 2432-387 1105-485 2335-345 3634-208-272-382-585-524-939-192-481-323-1038-395-1671-6-59-60-102-119-95-59 6-102 60-95 119 73 651 210 1227 409 1727 197 491 454 908 773 1251 153 1070 460 2182 897 3305-790-822-1603-1679-2198-2863-26-53-91-74-144-47s-75 91-48 145c622 1237 1468 2117 2285 2967 110 115 220 229 325 340 62 146 126 292 192 439 156 344 323 689 501 1033l1 3 2 2c443 859 953 1714 1516 2549 3 4 5 8 8 12 428 634 886 1257 1371 1863l3 5 2 2c1039 1300 2553 2851 3776 3934z" fill="#e31e24" fill-rule="nonzero"/>
    <path class="fil5" d="m107708-47516c-1857 400-2966 1129-3260 2216 1605-200 2609-1025 3260-2216zm-7273 19600c-6625 2137-3065-7192 1415-3603-1603 1090-2138 2284-1415 3603zm1497-2788c2642-2218 5489-3103 6920-515-1249-866-2554-525-3918 1087-762-489-1782-655-3002-572zm5175-2602c625-3562-4553-2275-4353 1301 1458-872 2895-1381 4353-1301zm-1372-8049c-1549 1031-2235 2362-2030 4003 1304-886 2060-2163 2030-4003zm271-2687c-430 1590-1437 2641-3087 3088 357-1682 1434-2665 3087-3088z" fill="#e31e24"/>
    <path class="fil6" d="m98398-6369c-7 59 36 112 95 119 60 6 113-37 119-96 48-446 94-892 143-1337 64-602 127-1195 185-1775 266-602 556-1128 869-1584 315-459 653-847 1012-1168 44-40 48-108 9-152-40-45-108-48-152-9-373 334-722 735-1047 1207-221 322-431 678-629 1069 1-6 2-13 2-19 53-552 101-1091 142-1614 549-913 1113-1412 1691-1478s1187 302 1829 1125c37 47 104 55 151 18 47-36 55-104 19-151-692-886-1366-1282-2024-1207-568 65-1112 483-1632 1241 17-245 33-486 47-723 155-352 325-641 508-871 181-228 375-396 580-509 53-29 72-94 43-147-29-52-94-71-147-42-230 127-446 313-645 564-108 136-212 291-310 465 10-231 19-458 25-680 1375-1876 2770-2966 4186-3178 1415-212 2865 455 4351 2095 40 44 108 47 152 7 44-39 47-108 7-152-1539-1697-3052-2387-4541-2164-1413 212-2795 1247-4147 3022 1-94 3-188 3-280 366-665 630-1331 802-1987 491-1169 1174-2053 2016-2702 844-651 1849-1068 2980-1300 58-11 96-68 84-127-12-58-69-95-127-84-1163 239-2198 669-3069 1341-637 491-1186 1111-1633 1880 858-1646 1867-2704 3013-3224 1182-538 2517-505 3989 39 56 20 118-9 139-64 20-56-8-118-64-139-1526-564-2916-595-4152-33-1116 507-2102 1495-2947 3008 47-707-12-1393-163-2039-1-673 91-1246 271-1725 179-476 445-860 791-1158 45-39 50-107 11-152s-107-50-152-11c-373 322-660 735-852 1245-127 341-213 724-255 1153-230-670-563-1289-982-1836-523-683-1180-1254-1937-1674-1371-760-3070-1024-4895-556-58 15-93 73-78 131 15 57 73 92 131 77 1769-453 3412-199 4737 536 731 405 1365 957 1871 1617 505 661 882 1429 1097 2268 273 1065 285 2244-29 3459l-3 12c-136 523-333 1054-596 1585-34-2219-405-3770-1432-4177-55-22-118 5-139 60-22 56 5 118 60 140 994 394 1316 2035 1304 4378-4 16-4 33 0 49-2 194-5 393-11 596-3 14-4 28-1 42-11 382-30 780-54 1191-2 10-3 21-2 32-22 370-49 750-80 1140-1 7-1 13-1 20-20 248-41 500-64 755-429-2396-1260-3628-2357-4087-1224-513-2761-56-4434 821-53 27-73 93-46 145 28 53 93 73 146 46 1619-849 3098-1296 4251-813 1151 482 1995 1900 2357 4784l-33 342c-144-581-321-1073-522-1503-276-589-594-1061-929-1485-37-47-105-55-151-19-47 37-55 105-19 152 327 414 637 873 904 1444 265 568 490 1249 647 2110l-67 644c-297-1263-821-2054-1542-2431-851-444-1964-305-3291 327-54 26-77 91-51 144 25 54 90 77 143 51 1265-602 2314-741 3099-331 785 409 1321 1374 1564 2980zm-428-14850c12 58 68 96 127 85 58-11 97-68 85-127-115-577-338-1083-679-1511s-799-777-1384-1039c-55-25-118 0-143 54-24 54 1 118 55 142 552 248 984 576 1303 977 319 400 528 876 636 1419zm7485 5051c45 38 113 33 152-13 38-45 33-113-13-152-437-368-891-562-1363-597-469-35-952 89-1445 356-53 28-72 93-44 146 28 52 93 72 146 44 457-247 901-362 1328-331 425 32 839 209 1239 547z" fill="#e31e24" fill-rule="nonzero"/>
    <path class="fil6" d="m90321-3847c59-5 103-57 98-116-5-60-57-104-116-99-1193 102-2032-434-2440-1120-166-279-260-582-278-876-17-291 41-572 179-811 265-458 832-766 1739-695 60 5 111-40 116-99 4-60-40-112-100-116-1003-78-1637 276-1941 802-160 277-228 600-208 931 20 329 124 666 308 974 445 749 1355 1335 2643 1225zm8471 14555c21 56 83 84 139 63 48-18 76-68 68-117-194-1999-564-3269-1020-4290-132-973-55-1789 243-2440 297-649 816-1139 1567-1461 55-23 80-86 57-141s-87-80-141-57c-803 344-1359 870-1679 1569-252 552-356 1209-317 1969-47-92-95-182-144-272-61-2001 211-3117 743-3607 517-476 1308-352 2292 123 296 142 609 178 926 161h3c308-17 616-85 915-153 58-14 94-71 81-129-13-59-71-95-129-82-291 67-590 133-881 149h-1c-284 15-562-16-820-141-1066-513-1936-636-2533-86-539 496-833 1547-819 3366-96-167-194-334-293-502-376-640-768-1305-1142-2176-109-253-180-528-226-821l-1-8c-11-69-20-138-28-209v-2l-1-5c-31-274-44-561-49-856v-11c-4-274 0-557 4-844 23-1798 48-3769-1695-5208-46-38-114-32-152 14s-31 114 15 152c1591 1314 1638 3125 1619 4811-282-1099-736-1963-1338-2622-789-862-1828-1374-3066-1606-59-11-115 28-126 86-11 59 28 115 86 126 1194 224 2193 714 2947 1539 756 827 1269 1993 1491 3569 4 239 13 473 32 700-295-124-561-282-804-465-287-218-542-474-775-757-38-46-106-52-151-14-46 37-53 105-15 151 242 294 509 562 811 791 287 217 604 400 960 537l3 23c-1268-129-2361-490-3300-1057-972-586-1781-1395-2447-2395-33-49-100-63-149-30-50 33-64 100-31 149 684 1027 1515 1858 2515 2461 211 128 430 245 656 352-515-164-1038-277-1568-335-60-6-113 37-119 96s37 112 96 119c844 92 1668 327 2473 689 800 359 1583 845 2349 1440 311 656 631 1199 940 1725 769 1306 1472 2503 1827 5114-1021-2544-1956-4109-2720-4829-335-316-644-475-919-490-290-15-536 125-730 409-294 430-470 1207-501 2285-6 213-162 349-370 531l-32 28c-45 39-50 107-11 152s108 50 153 11l32-28c249-217 435-379 444-688 29-1035 192-1773 463-2169 149-218 332-326 541-315 224 11 486 152 782 431 818 770 1843 2552 2970 5527zm-3311-8963c49 280 121 546 227 794l28 64c-663-486-1338-891-2027-1205 551 170 1141 286 1772 347z" fill="#e31e24" fill-rule="nonzero"/>
    <path class="fil7" d="m111307 26311c-200 48-400 96-600 143-1297-878-2620-1699-3974-2444-374-978-890-1906-1530-2788-258 276-419 648-486 1115-1087-3222-3831-5585-5232-8592-155 180-275 401-344 686-575-2774-2391-3811-4031-5597-799-870 383-1758 1344-1008 1243 971 2039 3372 3374 5733 2850 5041 6720 9201 11479 12752z" fill="none"/>
    <path class="fil2" d="m126741 35350c-157 964 791 1768 1763 1715 1317-73 2258-1251 1701-3056-442-1434-1801-2326-4189-2502-1851-137-3513-587-5062-1321 3542-272 7482-194 9946 2603 906 1028 1279 3346 363 4440-2188 2612-7049-1043-4260-2695-152 297-244 578-262 816zm-5788-5164c-21 369-13 752 31 1150-1920-1282-1596 181-4346 571 620 342 1172 716 1544 1173-1091 1295-2409 2020-3545 1143 2302-767 1390-2344-15-2537-1391-192-2928 109-1987 2795 379 1080 2214 1739 4318 815-131 380-365 706-658 1e3 1958-158 3594-799 4789-2101 946 1274 1866 1732 2774 1787-1152-1593-424-2856 2158-3331 2064-380 4263 1138 3846 2687-397 1473-1787 1685-2390 711 1744-95 1543-1747-8-2119-1421-340-2606-352-2691 1405-71 1452 1373 3002 2373 3259 1955 504 3535 255 4517-950 1639-2011-232-4625 448-7140 198-734 429-1450 696-2145-8554-8707-30329 3267-32610-5361-371-19-743-38-1115-57 0 2416 3932 3860 3002 7076 5523 2507 12741 638 18869 169z" fill="#ffed00"/>
    <path class="fil6" d="m129897 34070c20 56 81 86 137 67 57-19 87-80 68-136-816-2407-3515-2110-6387-1751-400-85-773-228-1113-438-346-213-659-497-937-859-36-47-104-56-151-20s-56 104-20 151c293 383 627 684 995 911 214 132 440 239 676 324-1929 237-3885 426-5314-240-54-26-119-2-144 52s-2 118 53 144c964 449 2144 525 3390 457-3106 1877-5065 2298-6301 2205-740-480-1155-896-1357-1239-126-214-166-396-151-545 14-141 79-254 167-336 86-79 194-130 300-151 142-27 294 65 382 185 33 43 56 90 65 134 7 35 5 69-9 96-31 57-118 99-289 103-59 1-106 51-105 110 2 60 51 107 110 105 262-6 410-95 475-217 39-74 46-157 29-241-16-75-52-150-102-219-131-176-366-312-596-267-143 27-289 96-406 205-125 115-216 274-236 472-19 191 29 418 180 675 181 307 514 664 1064 1063-777-162-1183-537-1395-732l-43-39c-44-41-112-38-152 6-41 44-38 112 6 152l42 39c266 245 821 757 1960 851 11 3 21 4 31 3 1329 101 3443-363 6795-2450 52-4 104-8 157-12-307 166-617 376-921 613-643 500-1262 1119-1753 1678-40 44-35 113 9 152 45 40 113 35 153-10 483-549 1092-1158 1723-1649 497-387 1007-701 1477-853 139-15 277-31 416-48-218 216-374 484-470 770-153 457-154 959-12 1359 19 56 81 86 137 66s86-82 66-138c-126-356-124-807 14-1218 120-358 343-684 674-889l318-39c2834-355 5523-691 6295 1588z" fill="#e31e24" fill-rule="nonzero"/>
    <polygon class="fil5" points="103752 26538 104596 26538 105239 27582 106126 26653 107026 26638 107298 30055 106297 30070 106154 28511 105096 29512 104410 28411 104024 29884 103066 29869" fill="#e31e24"/>
    <path class="fil5" d="m107784 30098 429-3388 943-14 1602 3402h-1115l-115-543-743 14-15 501zm979-1887 8 772 602 1-132-543-121-141z" fill="#e31e24"/>
    <path class="fil5" d="m111015 30077-279-3732 1466-18c1275 78 1958 2717-215 2831l-14 929zm901-1652c-34-414-67-829-100-1243 960 128 1046 1009 100 1243z" fill="#e31e24"/>
    <polygon class="fil5" points="113899 29712 113685 26209 114614 26209 114800 27446 115717 26539 115686 26095 116544 26095 116987 29540 115929 29583 115846 28384 114964 29040 115014 29683" fill="#e31e24"/>
    <polygon class="fil5" points="118717 29283 117588 29297 118131 27825 116801 25995 117702 25895 118445 26724 118974 25695 119904 25709" fill="#e31e24"/>
    <polygon class="fil5" points="121991 26409 121348 26381 121319 29154 120304 29183 120275 25580 122877 25595 123035 29197 122048 29169" fill="#e31e24"/>
    <path class="fil5" d="m124750 25452c750 0 1358 876 1358 1958s-608 1959-1358 1959-1358-877-1358-1959 608-1958 1358-1958zm0 943c332 0 600 455 600 1015 0 561-268 1015-600 1015s-600-454-600-1015c0-560 268-1015 600-1015z" fill="#e31e24"/>
    <path class="fil5" d="m163715-48689c-560-327-1121-654-1681-981-3698 3416-2319 5388 1345 6711 4-332 9-664 14-995 1003-1392 906-2648-547-3648 168-310 509-819 869-1087zm-45692 4945 112-4203-1345 1065v-1849l1681-953 2046 1121 280-1934 1793-952 3950 4090-2437 1009-2073-2297-533 3110-1737-1037-28 1961zm8869-7930c-2904 3970 2018 5740 2440 2756l-30-34 741 837 1569-644-3250-4735c-610 464-1343 796-2214 980 291 178 603 513 744 840zm1816 2051c-369 863-1783 184-1132-1278zm3204 699c659-14 1317-28 1976-42 9-476 18-952 28-1429 1905-342 3062-2641 2594-4238-181-619-3604 176-4521 1801-51 1331-25 2577-77 3908zm1800-2213c894-126 1358-771 1093-2298-710 511-1092 1264-1093 2298zm3348-3761h1905v5351h-1905zm2341-81c789-10 1578-19 2368-28 457 527 915 1055 1372 1583 295-505 589-1009 883-1513 490-5 981-10 1471-14-747 1293-1494 2587-2242 3880-2329 3563-5806-429-1274-154-860-1251-1719-2503-2578-3754zm5287 4907 1191-4721 4749 462-869 4875-1990-224 729-3755-1120-182-929 3743zm8952 2416c401-1389 1885-1619 2031-2707 85-630-969-1493-1065-3331-5663 1667-4914 4707-966 6038zm-561-4511c-1234 1164-1051 2450 757 2914-511-977-777-1946-757-2914zm5257 1611c-367-196-733-392-1100-588 535-241 1069-481 1604-722 610 365 1146 685 1755 1049-458 1821-884 3658-1342 5479-532-354-1022-681-1555-1036 201-799 402-1597 603-2396-691 402-1329 914-2074 1205-2222 869-2542-2245 358-1240 618-590 1132-1160 1751-1751zm3996 3606c-938 894-742 1831 184 2311 211-777 227-1583-184-2311z" fill="#e31e24"/>
    <polygon class="fil5" points="127752 26023 125979 29197 127066 29626 127409 28754 127495 29698 128553 30112 128396 26338" fill="#e31e24"/>
    <path class="fil5" d="m129368 26624-415 3474c2516 1911 3374-1454 1287-1902l128-1229zm686 2395c-33 247-67 495-100 743 584-70 635-593 100-743z" fill="#e31e24"/>
   </g>
   <g>
    <path class="fil0" d="m145660 25591v10507c0 415-414 930-829 930h-3502c-410 0-707 122-906 436-199-314-495-436-905-436h-3502c-415 0-830-515-830-930v-10507z" fill="#393185"/>
    <path class="fil2" d="m145931 25591v10507c0 280-138 587-341 815-202 226-475 385-759 385h-3502c-167 0-307 23-419 75-102 47-188 124-259 235l-228 359-228-359c-70-111-156-188-258-235-113-52-252-75-419-75h-3502c-284 0-558-159-759-385-204-228-341-535-341-815v-10777h11015zm-271 0v10507c0 415-414 930-829 930h-3502c-410 0-707 122-906 436-199-314-495-436-905-436h-3502c-415 0-830-515-830-930v-10507z" fill="#ffed00"/>
    <path class="fil8" d="m145660 31509v4589c0 415-414 930-829 930h-3502c-410 0-707 122-906 436-199-314-495-436-905-436h-3502c-415 0-830-515-830-930v-4589z" fill="#2b2a29"/>
    <path class="fil2" d="m138336 27807h1754v-1115h666v1115h1755v772h-1755v1266l1588 505-156 491-1432-456v953h5039v322h-4137c489 281 912 761 1178 1465-1739-1228-3417-1054-5003 1187-15-1276 624-2202 1462-2652h-4243v-322h5038v-1165l-1587-506 156-491 1431 456v-1053h-1754z" fill="#ffed00"/>
   </g>
  </g>
  <path class="fil2" d="m57281-61659h166285v106002h-166285zm163685 2600h-161085v100802h161085z" fill="#ffed00"/>
  <g>
   <rect class="fil2" x="51106" y="-66066" width="1942" height="1919" fill="#ffed00"/>
   <rect class="fil2" x="53048" y="-67985" width="1942" height="1919" fill="#ffed00"/>
   <rect class="fil2" x="54989" y="-66066" width="1942" height="1919" fill="#ffed00"/>
   <rect class="fil2" x="53048" y="-64147" width="1942" height="1919" fill="#ffed00"/>
   <rect class="fil5" x="56931" y="-67985" width="1942" height="1919" fill="#e31e24"/>
   <rect class="fil5" x="56931" y="-64147" width="1942" height="1919" fill="#e31e24"/>
   <rect class="fil2" x="58873" y="-66066" width="1942" height="1919" fill="#ffed00"/>
   <rect class="fil5" x="60814" y="-67985" width="1942" height="1919" fill="#e31e24"/>
   <rect class="fil5" x="60814" y="-64147" width="1942" height="1919" fill="#e31e24"/>
   <rect class="fil2" x="62756" y="-66066" width="1942" height="1919" fill="#ffed00"/>
   <rect class="fil2" x="64698" y="-67985" width="1919" height="1919" fill="#ffed00"/>
   <rect class="fil2" x="66617" y="-66066" width="1919" height="1919" fill="#ffed00"/>
   <rect class="fil2" x="64698" y="-64147" width="1919" height="1919" fill="#ffed00"/>
   <rect class="fil5" x="68536" y="-67985" width="1919" height="1919" fill="#e31e24"/>
   <rect class="fil5" x="68536" y="-64147" width="1919" height="1919" fill="#e31e24"/>
   <rect class="fil2" x="70455" y="-66066" width="1919" height="1919" fill="#ffed00"/>
   <rect class="fil5" x="72374" y="-67985" width="1919" height="1919" fill="#e31e24"/>
   <rect class="fil5" x="72374" y="-64147" width="1919" height="1919" fill="#e31e24"/>
   <rect class="fil2" x="74293" y="-66066" width="1919" height="1919" fill="#ffed00"/>
   <rect class="fil2" x="97323" y="-66066" width="1919" height="1919" fill="#ffed00"/>
   <rect class="fil2" x="120352" y="-66066" width="1919" height="1919" fill="#ffed00"/>
   <rect class="fil2" x="143381" y="-66066" width="1919" height="1919" fill="#ffed00"/>
   <rect class="fil2" x="166410" y="-66066" width="1919" height="1919" fill="#ffed00"/>
   <rect class="fil2" x="189440" y="-66066" width="1919" height="1919" fill="#ffed00"/>
   <rect class="fil2" x="212469" y="-66066" width="1919" height="1919" fill="#ffed00"/>
   <rect class="fil2" x="76212" y="-67985" width="1919" height="1919" fill="#ffed00"/>
   <rect class="fil2" x="99242" y="-67985" width="1919" height="1919" fill="#ffed00"/>
   <rect class="fil2" x="122271" y="-67985" width="1919" height="1919" fill="#ffed00"/>
   <rect class="fil2" x="145300" y="-67985" width="1919" height="1919" fill="#ffed00"/>
   <rect class="fil2" x="168330" y="-67985" width="1919" height="1919" fill="#ffed00"/>
   <rect class="fil2" x="191359" y="-67985" width="1919" height="1919" fill="#ffed00"/>
   <rect class="fil2" x="214388" y="-67985" width="1919" height="1919" fill="#ffed00"/>
   <rect class="fil2" x="78132" y="-66066" width="1919" height="1919" fill="#ffed00"/>
   <rect class="fil2" x="101161" y="-66066" width="1919" height="1919" fill="#ffed00"/>
   <rect class="fil2" x="124190" y="-66066" width="1919" height="1919" fill="#ffed00"/>
   <rect class="fil2" x="147219" y="-66066" width="1919" height="1919" fill="#ffed00"/>
   <rect class="fil2" x="170249" y="-66066" width="1919" height="1919" fill="#ffed00"/>
   <rect class="fil2" x="193278" y="-66066" width="1919" height="1919" fill="#ffed00"/>
   <rect class="fil2" x="216307" y="-66066" width="1919" height="1919" fill="#ffed00"/>
   <rect class="fil2" x="76212" y="-64147" width="1919" height="1919" fill="#ffed00"/>
   <rect class="fil2" x="99242" y="-64147" width="1919" height="1919" fill="#ffed00"/>
   <rect class="fil2" x="122271" y="-64147" width="1919" height="1919" fill="#ffed00"/>
   <rect class="fil2" x="145300" y="-64147" width="1919" height="1919" fill="#ffed00"/>
   <rect class="fil2" x="168330" y="-64147" width="1919" height="1919" fill="#ffed00"/>
   <rect class="fil2" x="191359" y="-64147" width="1919" height="1919" fill="#ffed00"/>
   <rect class="fil2" x="214388" y="-64147" width="1919" height="1919" fill="#ffed00"/>
   <rect class="fil5" x="80051" y="-67985" width="1919" height="1919" fill="#e31e24"/>
   <rect class="fil5" x="103080" y="-67985" width="1919" height="1919" fill="#e31e24"/>
   <rect class="fil5" x="126109" y="-67985" width="1919" height="1919" fill="#e31e24"/>
   <rect class="fil5" x="149138" y="-67985" width="1919" height="1919" fill="#e31e24"/>
   <rect class="fil5" x="172168" y="-67985" width="1919" height="1919" fill="#e31e24"/>
   <rect class="fil5" x="195197" y="-67985" width="1919" height="1919" fill="#e31e24"/>
   <rect class="fil5" x="218226" y="-67985" width="1919" height="1919" fill="#e31e24"/>
   <rect class="fil5" x="80051" y="-64147" width="1919" height="1919" fill="#e31e24"/>
   <rect class="fil5" x="103080" y="-64147" width="1919" height="1919" fill="#e31e24"/>
   <rect class="fil5" x="126109" y="-64147" width="1919" height="1919" fill="#e31e24"/>
   <rect class="fil5" x="149138" y="-64147" width="1919" height="1919" fill="#e31e24"/>
   <rect class="fil5" x="172168" y="-64147" width="1919" height="1919" fill="#e31e24"/>
   <rect class="fil5" x="195197" y="-64147" width="1919" height="1919" fill="#e31e24"/>
   <rect class="fil5" x="218226" y="-64147" width="1919" height="1919" fill="#e31e24"/>
   <rect class="fil2" x="81970" y="-66066" width="1919" height="1919" fill="#ffed00"/>
   <rect class="fil2" x="104999" y="-66066" width="1919" height="1919" fill="#ffed00"/>
   <rect class="fil2" x="128028" y="-66066" width="1919" height="1919" fill="#ffed00"/>
   <rect class="fil2" x="151058" y="-66066" width="1919" height="1919" fill="#ffed00"/>
   <rect class="fil2" x="174087" y="-66066" width="1919" height="1919" fill="#ffed00"/>
   <rect class="fil2" x="197116" y="-66066" width="1919" height="1919" fill="#ffed00"/>
   <rect class="fil2" x="220145" y="-66066" width="1919" height="1919" fill="#ffed00"/>
   <rect class="fil5" x="83889" y="-67985" width="1919" height="1919" fill="#e31e24"/>
   <rect class="fil5" x="106918" y="-67985" width="1919" height="1919" fill="#e31e24"/>
   <rect class="fil5" x="129947" y="-67985" width="1919" height="1919" fill="#e31e24"/>
   <rect class="fil5" x="152977" y="-67985" width="1919" height="1919" fill="#e31e24"/>
   <rect class="fil5" x="176006" y="-67985" width="1919" height="1919" fill="#e31e24"/>
   <rect class="fil5" x="199035" y="-67985" width="1919" height="1919" fill="#e31e24"/>
   <rect class="fil5" x="222065" y="-67985" width="1919" height="1919" fill="#e31e24"/>
   <rect class="fil5" x="83889" y="-64147" width="1919" height="1919" fill="#e31e24"/>
   <rect class="fil5" x="106918" y="-64147" width="1919" height="1919" fill="#e31e24"/>
   <rect class="fil5" x="129947" y="-64147" width="1919" height="1919" fill="#e31e24"/>
   <rect class="fil5" x="152977" y="-64147" width="1919" height="1919" fill="#e31e24"/>
   <rect class="fil5" x="176006" y="-64147" width="1919" height="1919" fill="#e31e24"/>
   <rect class="fil5" x="199035" y="-64147" width="1919" height="1919" fill="#e31e24"/>
   <rect class="fil5" x="222065" y="-64147" width="1919" height="1919" fill="#e31e24"/>
   <rect class="fil2" x="85808" y="-66066" width="1919" height="1919" fill="#ffed00"/>
   <rect class="fil2" x="108837" y="-66066" width="1919" height="1919" fill="#ffed00"/>
   <rect class="fil2" x="131867" y="-66066" width="1919" height="1919" fill="#ffed00"/>
   <rect class="fil2" x="154896" y="-66066" width="1919" height="1919" fill="#ffed00"/>
   <rect class="fil2" x="177925" y="-66066" width="1919" height="1919" fill="#ffed00"/>
   <rect class="fil2" x="200954" y="-66066" width="1919" height="1919" fill="#ffed00"/>
   <rect class="fil2" x="223984" y="-66066" width="1919" height="1919" fill="#ffed00"/>
   <rect class="fil2" x="87727" y="-67985" width="1919" height="1919" fill="#ffed00"/>
   <rect class="fil2" x="110756" y="-67985" width="1919" height="1919" fill="#ffed00"/>
   <rect class="fil2" x="133786" y="-67985" width="1919" height="1919" fill="#ffed00"/>
   <rect class="fil2" x="156815" y="-67985" width="1919" height="1919" fill="#ffed00"/>
   <rect class="fil2" x="179844" y="-67985" width="1919" height="1919" fill="#ffed00"/>
   <rect class="fil2" x="202873" y="-67985" width="1919" height="1919" fill="#ffed00"/>
   <rect class="fil2" x="225903" y="-67985" width="1919" height="1919" fill="#ffed00"/>
   <rect class="fil2" x="89646" y="-66066" width="1919" height="1919" fill="#ffed00"/>
   <rect class="fil2" x="112675" y="-66066" width="1919" height="1919" fill="#ffed00"/>
   <rect class="fil2" x="135705" y="-66066" width="1919" height="1919" fill="#ffed00"/>
   <rect class="fil2" x="158734" y="-66066" width="1919" height="1919" fill="#ffed00"/>
   <rect class="fil2" x="181763" y="-66066" width="1919" height="1919" fill="#ffed00"/>
   <rect class="fil2" x="204793" y="-66066" width="1919" height="1919" fill="#ffed00"/>
   <rect class="fil2" x="227822" y="-66066" width="1919" height="1919" fill="#ffed00"/>
   <rect class="fil2" x="87727" y="-64147" width="1919" height="1919" fill="#ffed00"/>
   <rect class="fil2" x="110756" y="-64147" width="1919" height="1919" fill="#ffed00"/>
   <rect class="fil2" x="133786" y="-64147" width="1919" height="1919" fill="#ffed00"/>
   <rect class="fil2" x="156815" y="-64147" width="1919" height="1919" fill="#ffed00"/>
   <rect class="fil2" x="179844" y="-64147" width="1919" height="1919" fill="#ffed00"/>
   <rect class="fil2" x="202873" y="-64147" width="1919" height="1919" fill="#ffed00"/>
   <rect class="fil2" x="225903" y="-64147" width="1919" height="1919" fill="#ffed00"/>
   <rect class="fil5" x="91565" y="-67985" width="1919" height="1919" fill="#e31e24"/>
   <rect class="fil5" x="114595" y="-67985" width="1919" height="1919" fill="#e31e24"/>
   <rect class="fil5" x="137624" y="-67985" width="1919" height="1919" fill="#e31e24"/>
   <rect class="fil5" x="160653" y="-67985" width="1919" height="1919" fill="#e31e24"/>
   <rect class="fil5" x="183682" y="-67985" width="1919" height="1919" fill="#e31e24"/>
   <rect class="fil5" x="206712" y="-67985" width="1919" height="1919" fill="#e31e24"/>
   <rect class="fil5" x="91565" y="-64147" width="1919" height="1919" fill="#e31e24"/>
   <rect class="fil5" x="114595" y="-64147" width="1919" height="1919" fill="#e31e24"/>
   <rect class="fil5" x="137624" y="-64147" width="1919" height="1919" fill="#e31e24"/>
   <rect class="fil5" x="160653" y="-64147" width="1919" height="1919" fill="#e31e24"/>
   <rect class="fil5" x="183682" y="-64147" width="1919" height="1919" fill="#e31e24"/>
   <rect class="fil5" x="206712" y="-64147" width="1919" height="1919" fill="#e31e24"/>
   <rect class="fil2" x="93484" y="-66066" width="1919" height="1919" fill="#ffed00"/>
   <rect class="fil2" x="116514" y="-66066" width="1919" height="1919" fill="#ffed00"/>
   <rect class="fil2" x="139543" y="-66066" width="1919" height="1919" fill="#ffed00"/>
   <rect class="fil2" x="162572" y="-66066" width="1919" height="1919" fill="#ffed00"/>
   <rect class="fil2" x="185602" y="-66066" width="1919" height="1919" fill="#ffed00"/>
   <rect class="fil2" x="208631" y="-66066" width="1919" height="1919" fill="#ffed00"/>
   <rect class="fil5" x="95404" y="-67985" width="1919" height="1919" fill="#e31e24"/>
   <rect class="fil5" x="118433" y="-67985" width="1919" height="1919" fill="#e31e24"/>
   <rect class="fil5" x="141462" y="-67985" width="1919" height="1919" fill="#e31e24"/>
   <rect class="fil5" x="164491" y="-67985" width="1919" height="1919" fill="#e31e24"/>
   <rect class="fil5" x="187521" y="-67985" width="1919" height="1919" fill="#e31e24"/>
   <rect class="fil5" x="210550" y="-67985" width="1919" height="1919" fill="#e31e24"/>
   <rect class="fil5" x="95404" y="-64147" width="1919" height="1919" fill="#e31e24"/>
   <rect class="fil5" x="118433" y="-64147" width="1919" height="1919" fill="#e31e24"/>
   <rect class="fil5" x="141462" y="-64147" width="1919" height="1919" fill="#e31e24"/>
   <rect class="fil5" x="164491" y="-64147" width="1919" height="1919" fill="#e31e24"/>
   <rect class="fil5" x="187521" y="-64147" width="1919" height="1919" fill="#e31e24"/>
   <rect class="fil5" x="210550" y="-64147" width="1919" height="1919" fill="#e31e24"/>
   <rect class="fil5" x="223984" y="-62228" width="1919" height="1919" fill="#e31e24"/>
   <rect class="fil5" x="223984" y="-58390" width="1919" height="1919" fill="#e31e24"/>
   <rect class="fil2" x="225903" y="-60309" width="1919" height="1919" fill="#ffed00"/>
   <rect class="fil5" x="227822" y="-62228" width="1919" height="1919" fill="#e31e24"/>
   <rect class="fil5" x="227822" y="-58390" width="1919" height="1919" fill="#e31e24"/>
   <rect class="fil2" x="223984" y="-54593" width="1919" height="1878" fill="#ffed00"/>
   <rect class="fil2" x="223984" y="-43323" width="1919" height="1878" fill="#ffed00"/>
   <rect class="fil2" x="223984" y="-32054" width="1919" height="1878" fill="#ffed00"/>
   <rect class="fil2" x="223984" y="-20785" width="1919" height="1878" fill="#ffed00"/>
   <rect class="fil2" x="223984" y="-9515" width="1919" height="1878" fill="#ffed00"/>
   <rect class="fil2" x="223984" y="1754" width="1919" height="1878" fill="#ffed00"/>
   <rect class="fil2" x="223984" y="13023" width="1919" height="1878" fill="#ffed00"/>
   <rect class="fil2" x="223984" y="24293" width="1919" height="1878" fill="#ffed00"/>
   <rect class="fil2" x="223984" y="35562" width="1919" height="1878" fill="#ffed00"/>
   <rect class="fil2" x="223984" y="46831" width="1919" height="1878" fill="#ffed00"/>
   <rect class="fil2" x="225903" y="-56471" width="1919" height="1878" fill="#ffed00"/>
   <rect class="fil2" x="225903" y="-45202" width="1919" height="1878" fill="#ffed00"/>
   <rect class="fil2" x="225903" y="-33932" width="1919" height="1878" fill="#ffed00"/>
   <rect class="fil2" x="225903" y="-22663" width="1919" height="1878" fill="#ffed00"/>
   <rect class="fil2" x="225903" y="-11394" width="1919" height="1878" fill="#ffed00"/>
   <rect class="fil2" x="225903" y="-124" width="1919" height="1878" fill="#ffed00"/>
   <rect class="fil2" x="225903" y="11145" width="1919" height="1878" fill="#ffed00"/>
   <rect class="fil2" x="225903" y="22414" width="1919" height="1878" fill="#ffed00"/>
   <rect class="fil2" x="225903" y="33684" width="1919" height="1878" fill="#ffed00"/>
   <rect class="fil2" x="225903" y="44953" width="1919" height="1878" fill="#ffed00"/>
   <rect class="fil2" x="227822" y="-54593" width="1919" height="1878" fill="#ffed00"/>
   <rect class="fil2" x="227822" y="-43323" width="1919" height="1878" fill="#ffed00"/>
   <rect class="fil2" x="227822" y="-32054" width="1919" height="1878" fill="#ffed00"/>
   <rect class="fil2" x="227822" y="-20785" width="1919" height="1878" fill="#ffed00"/>
   <rect class="fil2" x="227822" y="-9515" width="1919" height="1878" fill="#ffed00"/>
   <rect class="fil2" x="227822" y="1754" width="1919" height="1878" fill="#ffed00"/>
   <rect class="fil2" x="227822" y="13023" width="1919" height="1878" fill="#ffed00"/>
   <rect class="fil2" x="227822" y="24293" width="1919" height="1878" fill="#ffed00"/>
   <rect class="fil2" x="227822" y="35562" width="1919" height="1878" fill="#ffed00"/>
   <rect class="fil2" x="227822" y="46831" width="1919" height="1878" fill="#ffed00"/>
   <rect class="fil2" x="225903" y="-52714" width="1919" height="1878" fill="#ffed00"/>
   <rect class="fil2" x="225903" y="-41445" width="1919" height="1878" fill="#ffed00"/>
   <rect class="fil2" x="225903" y="-30176" width="1919" height="1878" fill="#ffed00"/>
   <rect class="fil2" x="225903" y="-18906" width="1919" height="1878" fill="#ffed00"/>
   <rect class="fil2" x="225903" y="-7637" width="1919" height="1878" fill="#ffed00"/>
   <rect class="fil2" x="225903" y="3632" width="1919" height="1878" fill="#ffed00"/>
   <rect class="fil2" x="225903" y="14901" width="1919" height="1878" fill="#ffed00"/>
   <rect class="fil2" x="225903" y="26171" width="1919" height="1878" fill="#ffed00"/>
   <rect class="fil2" x="225903" y="37440" width="1919" height="1878" fill="#ffed00"/>
   <rect class="fil2" x="225903" y="48709" width="1919" height="1878" fill="#ffed00"/>
   <rect class="fil5" x="223984" y="-50836" width="1919" height="1878" fill="#e31e24"/>
   <rect class="fil5" x="223984" y="-39567" width="1919" height="1878" fill="#e31e24"/>
   <rect class="fil5" x="223984" y="-28298" width="1919" height="1878" fill="#e31e24"/>
   <rect class="fil5" x="223984" y="-17028" width="1919" height="1878" fill="#e31e24"/>
   <rect class="fil5" x="223984" y="-5759" width="1919" height="1878" fill="#e31e24"/>
   <rect class="fil5" x="223984" y="5510" width="1919" height="1878" fill="#e31e24"/>
   <rect class="fil5" x="223984" y="16780" width="1919" height="1878" fill="#e31e24"/>
   <rect class="fil5" x="223984" y="28049" width="1919" height="1878" fill="#e31e24"/>
   <rect class="fil5" x="223984" y="39318" width="1919" height="1878" fill="#e31e24"/>
   <rect class="fil5" x="223984" y="-47080" width="1919" height="1878" fill="#e31e24"/>
   <rect class="fil5" x="223984" y="-35810" width="1919" height="1878" fill="#e31e24"/>
   <rect class="fil5" x="223984" y="-24541" width="1919" height="1878" fill="#e31e24"/>
   <rect class="fil5" x="223984" y="-13272" width="1919" height="1878" fill="#e31e24"/>
   <rect class="fil5" x="223984" y="-2002" width="1919" height="1878" fill="#e31e24"/>
   <rect class="fil5" x="223984" y="9267" width="1919" height="1878" fill="#e31e24"/>
   <rect class="fil5" x="223984" y="20536" width="1919" height="1878" fill="#e31e24"/>
   <rect class="fil5" x="223984" y="31805" width="1919" height="1878" fill="#e31e24"/>
   <rect class="fil5" x="223984" y="43075" width="1919" height="1878" fill="#e31e24"/>
   <rect class="fil2" x="225903" y="-48958" width="1919" height="1878" fill="#ffed00"/>
   <rect class="fil2" x="225903" y="-37689" width="1919" height="1878" fill="#ffed00"/>
   <rect class="fil2" x="225903" y="-26419" width="1919" height="1878" fill="#ffed00"/>
   <rect class="fil2" x="225903" y="-15150" width="1919" height="1878" fill="#ffed00"/>
   <rect class="fil2" x="225903" y="-3881" width="1919" height="1878" fill="#ffed00"/>
   <rect class="fil2" x="225903" y="7389" width="1919" height="1878" fill="#ffed00"/>
   <rect class="fil2" x="225903" y="18658" width="1919" height="1878" fill="#ffed00"/>
   <rect class="fil2" x="225903" y="29927" width="1919" height="1878" fill="#ffed00"/>
   <rect class="fil2" x="225903" y="41197" width="1919" height="1878" fill="#ffed00"/>
   <rect class="fil5" x="227822" y="-50836" width="1919" height="1878" fill="#e31e24"/>
   <rect class="fil5" x="227822" y="-39567" width="1919" height="1878" fill="#e31e24"/>
   <rect class="fil5" x="227822" y="-28298" width="1919" height="1878" fill="#e31e24"/>
   <rect class="fil5" x="227822" y="-17028" width="1919" height="1878" fill="#e31e24"/>
   <rect class="fil5" x="227822" y="-5759" width="1919" height="1878" fill="#e31e24"/>
   <rect class="fil5" x="227822" y="5510" width="1919" height="1878" fill="#e31e24"/>
   <rect class="fil5" x="227822" y="16780" width="1919" height="1878" fill="#e31e24"/>
   <rect class="fil5" x="227822" y="28049" width="1919" height="1878" fill="#e31e24"/>
   <rect class="fil5" x="227822" y="39318" width="1919" height="1878" fill="#e31e24"/>
   <rect class="fil5" x="227822" y="-47080" width="1919" height="1878" fill="#e31e24"/>
   <rect class="fil5" x="227822" y="-35810" width="1919" height="1878" fill="#e31e24"/>
   <rect class="fil5" x="227822" y="-24541" width="1919" height="1878" fill="#e31e24"/>
   <rect class="fil5" x="227822" y="-13272" width="1919" height="1878" fill="#e31e24"/>
   <rect class="fil5" x="227822" y="-2002" width="1919" height="1878" fill="#e31e24"/>
   <rect class="fil5" x="227822" y="9267" width="1919" height="1878" fill="#e31e24"/>
   <rect class="fil5" x="227822" y="20536" width="1919" height="1878" fill="#e31e24"/>
   <rect class="fil5" x="227822" y="31805" width="1919" height="1878" fill="#e31e24"/>
   <rect class="fil5" x="227822" y="43075" width="1919" height="1878" fill="#e31e24"/>
   <rect class="fil2" transform="matrix(0 -.66667 .65246 0 214593 50669)" width="2879" height="2879" fill="#ffed00"/>
   <rect class="fil2" transform="matrix(0 -.66667 .65246 0 212714 48750)" width="2879" height="2879" fill="#ffed00"/>
   <rect class="fil2" transform="matrix(0 -.66667 .65246 0 214593 46831)" width="2879" height="2879" fill="#ffed00"/>
   <rect class="fil2" transform="matrix(0 -.66667 .65246 0 216471 48750)" width="2879" height="2879" fill="#ffed00"/>
   <rect class="fil5" transform="matrix(0 -.66667 .65246 0 218349 50669)" width="2879" height="2879" fill="#e31e24"/>
   <rect class="fil5" transform="matrix(0 -.66667 .65246 0 222105 50669)" width="2879" height="2879" fill="#e31e24"/>
   <rect class="fil2" transform="matrix(0 -.66667 .65246 0 220227 48750)" width="2879" height="2879" fill="#ffed00"/>
   <rect class="fil5" transform="matrix(0 -.66667 .65246 0 218349 46831)" width="2879" height="2879" fill="#e31e24"/>
   <rect class="fil5" transform="matrix(0 -.66667 .65246 0 222105 46831)" width="2879" height="2879" fill="#e31e24"/>
   <rect class="fil2" transform="matrix(0 -.66667 .65246 0 203323 50669)" width="2879" height="2879" fill="#ffed00"/>
   <rect class="fil2" transform="matrix(0 -.66667 .65246 0 192054 50669)" width="2879" height="2879" fill="#ffed00"/>
   <rect class="fil2" transform="matrix(0 -.66667 .65246 0 180785 50669)" width="2879" height="2879" fill="#ffed00"/>
   <rect class="fil2" transform="matrix(0 -.66667 .65246 0 169515 50669)" width="2879" height="2879" fill="#ffed00"/>
   <rect class="fil2" transform="matrix(0 -.66667 .65246 0 158246 50669)" width="2879" height="2879" fill="#ffed00"/>
   <rect class="fil2" transform="matrix(0 -.66667 .65246 0 146977 50669)" width="2879" height="2879" fill="#ffed00"/>
   <rect class="fil2" transform="matrix(0 -.66667 .65246 0 135707 50669)" width="2879" height="2879" fill="#ffed00"/>
   <rect class="fil2" transform="matrix(0 -.66667 .65246 0 124438 50669)" width="2879" height="2879" fill="#ffed00"/>
   <rect class="fil2" transform="matrix(0 -.66667 .65246 0 113169 50669)" width="2879" height="2879" fill="#ffed00"/>
   <rect class="fil2" transform="matrix(0 -.66667 .65246 0 101899 50669)" width="2879" height="2879" fill="#ffed00"/>
   <rect class="fil2" transform="matrix(0 -.66667 .65246 0 90630 50669)" width="2879" height="2879" fill="#ffed00"/>
   <rect class="fil2" transform="matrix(0 -.66667 .65246 0 79361 50669)" width="2879" height="2879" fill="#ffed00"/>
   <rect class="fil2" transform="matrix(0 -.66667 .65246 0 68092 50669)" width="2879" height="2879" fill="#ffed00"/>
   <rect class="fil2" transform="matrix(0 -.66667 .65246 0 56822 50669)" width="2879" height="2879" fill="#ffed00"/>
   <rect class="fil2" transform="matrix(0 -.66667 .65246 0 201445 48750)" width="2879" height="2879" fill="#ffed00"/>
   <rect class="fil2" transform="matrix(0 -.66667 .65246 0 190176 48750)" width="2879" height="2879" fill="#ffed00"/>
   <rect class="fil2" transform="matrix(0 -.66667 .65246 0 178906 48750)" width="2879" height="2879" fill="#ffed00"/>
   <rect class="fil2" transform="matrix(0 -.66667 .65246 0 167637 48750)" width="2879" height="2879" fill="#ffed00"/>
   <rect class="fil2" transform="matrix(0 -.66667 .65246 0 156368 48750)" width="2879" height="2879" fill="#ffed00"/>
   <rect class="fil2" transform="matrix(0 -.66667 .65246 0 145098 48750)" width="2879" height="2879" fill="#ffed00"/>
   <rect class="fil2" transform="matrix(0 -.66667 .65246 0 133829 48750)" width="2879" height="2879" fill="#ffed00"/>
   <rect class="fil2" transform="matrix(0 -.66667 .65246 0 122560 48750)" width="2879" height="2879" fill="#ffed00"/>
   <rect class="fil2" transform="matrix(0 -.66667 .65246 0 111291 48750)" width="2879" height="2879" fill="#ffed00"/>
   <rect class="fil2" transform="matrix(0 -.66667 .65246 0 100021 48750)" width="2879" height="2879" fill="#ffed00"/>
   <rect class="fil2" transform="matrix(0 -.66667 .65246 0 88752 48750)" width="2879" height="2879" fill="#ffed00"/>
   <rect class="fil2" transform="matrix(0 -.66667 .65246 0 77483 48750)" width="2879" height="2879" fill="#ffed00"/>
   <rect class="fil2" transform="matrix(0 -.66667 .65246 0 66213 48750)" width="2879" height="2879" fill="#ffed00"/>
   <rect class="fil2" transform="matrix(0 -.66667 .65246 0 54944 48750)" width="2879" height="2879" fill="#ffed00"/>
   <rect class="fil2" transform="matrix(0 -.66667 .65246 0 203323 46831)" width="2879" height="2879" fill="#ffed00"/>
   <rect class="fil2" transform="matrix(0 -.66667 .65246 0 192054 46831)" width="2879" height="2879" fill="#ffed00"/>
   <rect class="fil2" transform="matrix(0 -.66667 .65246 0 180785 46831)" width="2879" height="2879" fill="#ffed00"/>
   <rect class="fil2" transform="matrix(0 -.66667 .65246 0 169515 46831)" width="2879" height="2879" fill="#ffed00"/>
   <rect class="fil2" transform="matrix(0 -.66667 .65246 0 158246 46831)" width="2879" height="2879" fill="#ffed00"/>
   <rect class="fil2" transform="matrix(0 -.66667 .65246 0 146977 46831)" width="2879" height="2879" fill="#ffed00"/>
   <rect class="fil2" transform="matrix(0 -.66667 .65246 0 135707 46831)" width="2879" height="2879" fill="#ffed00"/>
   <rect class="fil2" transform="matrix(0 -.66667 .65246 0 124438 46831)" width="2879" height="2879" fill="#ffed00"/>
   <rect class="fil2" transform="matrix(0 -.66667 .65246 0 113169 46831)" width="2879" height="2879" fill="#ffed00"/>
   <rect class="fil2" transform="matrix(0 -.66667 .65246 0 101899 46831)" width="2879" height="2879" fill="#ffed00"/>
   <rect class="fil2" transform="matrix(0 -.66667 .65246 0 90630 46831)" width="2879" height="2879" fill="#ffed00"/>
   <rect class="fil2" transform="matrix(0 -.66667 .65246 0 79361 46831)" width="2879" height="2879" fill="#ffed00"/>
   <rect class="fil2" transform="matrix(0 -.66667 .65246 0 68092 46831)" width="2879" height="2879" fill="#ffed00"/>
   <rect class="fil2" transform="matrix(0 -.66667 .65246 0 56822 46831)" width="2879" height="2879" fill="#ffed00"/>
   <rect class="fil2" transform="matrix(0 -.66667 .65246 0 205201 48750)" width="2879" height="2879" fill="#ffed00"/>
   <rect class="fil2" transform="matrix(0 -.66667 .65246 0 193932 48750)" width="2879" height="2879" fill="#ffed00"/>
   <rect class="fil2" transform="matrix(0 -.66667 .65246 0 182663 48750)" width="2879" height="2879" fill="#ffed00"/>
   <rect class="fil2" transform="matrix(0 -.66667 .65246 0 171394 48750)" width="2879" height="2879" fill="#ffed00"/>
   <rect class="fil2" transform="matrix(0 -.66667 .65246 0 160124 48750)" width="2879" height="2879" fill="#ffed00"/>
   <rect class="fil2" transform="matrix(0 -.66667 .65246 0 148855 48750)" width="2879" height="2879" fill="#ffed00"/>
   <rect class="fil2" transform="matrix(0 -.66667 .65246 0 137586 48750)" width="2879" height="2879" fill="#ffed00"/>
   <rect class="fil2" transform="matrix(0 -.66667 .65246 0 126316 48750)" width="2879" height="2879" fill="#ffed00"/>
   <rect class="fil2" transform="matrix(0 -.66667 .65246 0 115047 48750)" width="2879" height="2879" fill="#ffed00"/>
   <rect class="fil2" transform="matrix(0 -.66667 .65246 0 103778 48750)" width="2879" height="2879" fill="#ffed00"/>
   <rect class="fil2" transform="matrix(0 -.66667 .65246 0 92508 48750)" width="2879" height="2879" fill="#ffed00"/>
   <rect class="fil2" transform="matrix(0 -.66667 .65246 0 81239 48750)" width="2879" height="2879" fill="#ffed00"/>
   <rect class="fil2" transform="matrix(0 -.66667 .65246 0 69970 48750)" width="2879" height="2879" fill="#ffed00"/>
   <rect class="fil2" transform="matrix(0 -.66667 .65246 0 58700 48750)" width="2879" height="2879" fill="#ffed00"/>
   <rect class="fil5" transform="matrix(0 -.66667 .65246 0 207080 50669)" width="2879" height="2879" fill="#e31e24"/>
   <rect class="fil5" transform="matrix(0 -.66667 .65246 0 195810 50669)" width="2879" height="2879" fill="#e31e24"/>
   <rect class="fil5" transform="matrix(0 -.66667 .65246 0 184541 50669)" width="2879" height="2879" fill="#e31e24"/>
   <rect class="fil5" transform="matrix(0 -.66667 .65246 0 173272 50669)" width="2879" height="2879" fill="#e31e24"/>
   <rect class="fil5" transform="matrix(0 -.66667 .65246 0 162002 50669)" width="2879" height="2879" fill="#e31e24"/>
   <rect class="fil5" transform="matrix(0 -.66667 .65246 0 150733 50669)" width="2879" height="2879" fill="#e31e24"/>
   <rect class="fil5" transform="matrix(0 -.66667 .65246 0 139464 50669)" width="2879" height="2879" fill="#e31e24"/>
   <rect class="fil5" transform="matrix(0 -.66667 .65246 0 128195 50669)" width="2879" height="2879" fill="#e31e24"/>
   <rect class="fil5" transform="matrix(0 -.66667 .65246 0 116925 50669)" width="2879" height="2879" fill="#e31e24"/>
   <rect class="fil5" transform="matrix(0 -.66667 .65246 0 105656 50669)" width="2879" height="2879" fill="#e31e24"/>
   <rect class="fil5" transform="matrix(0 -.66667 .65246 0 94387 50669)" width="2879" height="2879" fill="#e31e24"/>
   <rect class="fil5" transform="matrix(0 -.66667 .65246 0 83117 50669)" width="2879" height="2879" fill="#e31e24"/>
   <rect class="fil5" transform="matrix(0 -.66667 .65246 0 71848 50669)" width="2879" height="2879" fill="#e31e24"/>
   <rect class="fil5" transform="matrix(0 -.66667 .65246 0 60579 50669)" width="2879" height="2879" fill="#e31e24"/>
   <rect class="fil5" transform="matrix(0 -.66667 .65246 0 210836 50669)" width="2879" height="2879" fill="#e31e24"/>
   <rect class="fil5" transform="matrix(0 -.66667 .65246 0 199567 50669)" width="2879" height="2879" fill="#e31e24"/>
   <rect class="fil5" transform="matrix(0 -.66667 .65246 0 188297 50669)" width="2879" height="2879" fill="#e31e24"/>
   <rect class="fil5" transform="matrix(0 -.66667 .65246 0 177028 50669)" width="2879" height="2879" fill="#e31e24"/>
   <rect class="fil5" transform="matrix(0 -.66667 .65246 0 165759 50669)" width="2879" height="2879" fill="#e31e24"/>
   <rect class="fil5" transform="matrix(0 -.66667 .65246 0 154490 50669)" width="2879" height="2879" fill="#e31e24"/>
   <rect class="fil5" transform="matrix(0 -.66667 .65246 0 143220 50669)" width="2879" height="2879" fill="#e31e24"/>
   <rect class="fil5" transform="matrix(0 -.66667 .65246 0 131951 50669)" width="2879" height="2879" fill="#e31e24"/>
   <rect class="fil5" transform="matrix(0 -.66667 .65246 0 120682 50669)" width="2879" height="2879" fill="#e31e24"/>
   <rect class="fil5" transform="matrix(0 -.66667 .65246 0 109412 50669)" width="2879" height="2879" fill="#e31e24"/>
   <rect class="fil5" transform="matrix(0 -.66667 .65246 0 98143 50669)" width="2879" height="2879" fill="#e31e24"/>
   <rect class="fil5" transform="matrix(0 -.66667 .65246 0 86874 50669)" width="2879" height="2879" fill="#e31e24"/>
   <rect class="fil5" transform="matrix(0 -.66667 .65246 0 75604 50669)" width="2879" height="2879" fill="#e31e24"/>
   <rect class="fil5" transform="matrix(0 -.66667 .65246 0 64335 50669)" width="2879" height="2879" fill="#e31e24"/>
   <rect class="fil5" transform="matrix(0 -.66667 .65246 0 53066 50669)" width="2879" height="2879" fill="#e31e24"/>
   <rect class="fil2" transform="matrix(0 -.66667 .65246 0 208958 48750)" width="2879" height="2879" fill="#ffed00"/>
   <rect class="fil2" transform="matrix(0 -.66667 .65246 0 197689 48750)" width="2879" height="2879" fill="#ffed00"/>
   <rect class="fil2" transform="matrix(0 -.66667 .65246 0 186419 48750)" width="2879" height="2879" fill="#ffed00"/>
   <rect class="fil2" transform="matrix(0 -.66667 .65246 0 175150 48750)" width="2879" height="2879" fill="#ffed00"/>
   <rect class="fil2" transform="matrix(0 -.66667 .65246 0 163881 48750)" width="2879" height="2879" fill="#ffed00"/>
   <rect class="fil2" transform="matrix(0 -.66667 .65246 0 152611 48750)" width="2879" height="2879" fill="#ffed00"/>
   <rect class="fil2" transform="matrix(0 -.66667 .65246 0 141342 48750)" width="2879" height="2879" fill="#ffed00"/>
   <rect class="fil2" transform="matrix(0 -.66667 .65246 0 130073 48750)" width="2879" height="2879" fill="#ffed00"/>
   <rect class="fil2" transform="matrix(0 -.66667 .65246 0 118803 48750)" width="2879" height="2879" fill="#ffed00"/>
   <rect class="fil2" transform="matrix(0 -.66667 .65246 0 107534 48750)" width="2879" height="2879" fill="#ffed00"/>
   <rect class="fil2" transform="matrix(0 -.66667 .65246 0 96265 48750)" width="2879" height="2879" fill="#ffed00"/>
   <rect class="fil2" transform="matrix(0 -.66667 .65246 0 84996 48750)" width="2879" height="2879" fill="#ffed00"/>
   <rect class="fil2" transform="matrix(0 -.66667 .65246 0 73726 48750)" width="2879" height="2879" fill="#ffed00"/>
   <rect class="fil2" transform="matrix(0 -.66667 .65246 0 62457 48750)" width="2879" height="2879" fill="#ffed00"/>
   <rect class="fil2" transform="matrix(0 -.66667 .65246 0 51188 48750)" width="2879" height="2879" fill="#ffed00"/>
   <rect class="fil5" transform="matrix(0 -.66667 .65246 0 207080 46831)" width="2879" height="2879" fill="#e31e24"/>
   <rect class="fil5" transform="matrix(0 -.66667 .65246 0 195810 46831)" width="2879" height="2879" fill="#e31e24"/>
   <rect class="fil5" transform="matrix(0 -.66667 .65246 0 184541 46831)" width="2879" height="2879" fill="#e31e24"/>
   <rect class="fil5" transform="matrix(0 -.66667 .65246 0 173272 46831)" width="2879" height="2879" fill="#e31e24"/>
   <rect class="fil5" transform="matrix(0 -.66667 .65246 0 162002 46831)" width="2879" height="2879" fill="#e31e24"/>
   <rect class="fil5" transform="matrix(0 -.66667 .65246 0 150733 46831)" width="2879" height="2879" fill="#e31e24"/>
   <rect class="fil5" transform="matrix(0 -.66667 .65246 0 139464 46831)" width="2879" height="2879" fill="#e31e24"/>
   <rect class="fil5" transform="matrix(0 -.66667 .65246 0 128195 46831)" width="2879" height="2879" fill="#e31e24"/>
   <rect class="fil5" transform="matrix(0 -.66667 .65246 0 116925 46831)" width="2879" height="2879" fill="#e31e24"/>
   <rect class="fil5" transform="matrix(0 -.66667 .65246 0 105656 46831)" width="2879" height="2879" fill="#e31e24"/>
   <rect class="fil5" transform="matrix(0 -.66667 .65246 0 94387 46831)" width="2879" height="2879" fill="#e31e24"/>
   <rect class="fil5" transform="matrix(0 -.66667 .65246 0 83117 46831)" width="2879" height="2879" fill="#e31e24"/>
   <rect class="fil5" transform="matrix(0 -.66667 .65246 0 71848 46831)" width="2879" height="2879" fill="#e31e24"/>
   <rect class="fil5" transform="matrix(0 -.66667 .65246 0 60579 46831)" width="2879" height="2879" fill="#e31e24"/>
   <rect class="fil5" transform="matrix(0 -.66667 .65246 0 210836 46831)" width="2879" height="2879" fill="#e31e24"/>
   <rect class="fil5" transform="matrix(0 -.66667 .65246 0 199567 46831)" width="2879" height="2879" fill="#e31e24"/>
   <rect class="fil5" transform="matrix(0 -.66667 .65246 0 188297 46831)" width="2879" height="2879" fill="#e31e24"/>
   <rect class="fil5" transform="matrix(0 -.66667 .65246 0 177028 46831)" width="2879" height="2879" fill="#e31e24"/>
   <rect class="fil5" transform="matrix(0 -.66667 .65246 0 165759 46831)" width="2879" height="2879" fill="#e31e24"/>
   <rect class="fil5" transform="matrix(0 -.66667 .65246 0 154490 46831)" width="2879" height="2879" fill="#e31e24"/>
   <rect class="fil5" transform="matrix(0 -.66667 .65246 0 143220 46831)" width="2879" height="2879" fill="#e31e24"/>
   <rect class="fil5" transform="matrix(0 -.66667 .65246 0 131951 46831)" width="2879" height="2879" fill="#e31e24"/>
   <rect class="fil5" transform="matrix(0 -.66667 .65246 0 120682 46831)" width="2879" height="2879" fill="#e31e24"/>
   <rect class="fil5" transform="matrix(0 -.66667 .65246 0 109412 46831)" width="2879" height="2879" fill="#e31e24"/>
   <rect class="fil5" transform="matrix(0 -.66667 .65246 0 98143 46831)" width="2879" height="2879" fill="#e31e24"/>
   <rect class="fil5" transform="matrix(0 -.66667 .65246 0 86874 46831)" width="2879" height="2879" fill="#e31e24"/>
   <rect class="fil5" transform="matrix(0 -.66667 .65246 0 75604 46831)" width="2879" height="2879" fill="#e31e24"/>
   <rect class="fil5" transform="matrix(0 -.66667 .65246 0 64335 46831)" width="2879" height="2879" fill="#e31e24"/>
   <rect class="fil5" transform="matrix(0 -.66667 .65246 0 53066 46831)" width="2879" height="2879" fill="#e31e24"/>
   <rect class="fil2" x="51106" y="43034" width="1919" height="1878" fill="#ffed00"/>
   <rect class="fil2" x="53025" y="41156" width="1919" height="1878" fill="#ffed00"/>
   <rect class="fil2" x="54944" y="43034" width="1919" height="1878" fill="#ffed00"/>
   <rect class="fil5" x="51106" y="35521" width="1919" height="1878" fill="#e31e24"/>
   <rect class="fil5" x="51106" y="39277" width="1919" height="1878" fill="#e31e24"/>
   <rect class="fil2" x="53025" y="37399" width="1919" height="1878" fill="#ffed00"/>
   <rect class="fil5" x="54944" y="35521" width="1919" height="1878" fill="#e31e24"/>
   <rect class="fil5" x="54944" y="39277" width="1919" height="1878" fill="#e31e24"/>
   <rect class="fil2" x="53025" y="33643" width="1919" height="1878" fill="#ffed00"/>
   <rect class="fil2" x="51106" y="31765" width="1919" height="1878" fill="#ffed00"/>
   <rect class="fil2" x="54944" y="31765" width="1919" height="1878" fill="#ffed00"/>
   <rect class="fil2" x="53025" y="29886" width="1919" height="1878" fill="#ffed00"/>
   <rect class="fil5" transform="matrix(0 -.66667 .66667 0 51106 29886)" width="2879" height="2879" fill="#e31e24"/>
   <rect class="fil5" transform="matrix(0 -.66667 .66667 0 54944 29886)" width="2879" height="2879" fill="#e31e24"/>
   <rect class="fil2" transform="matrix(0 -.66667 .66667 0 53025 27967)" width="2879" height="2879" fill="#ffed00"/>
   <rect class="fil5" transform="matrix(0 -.66667 .66667 0 51106 26048)" width="2879" height="2879" fill="#e31e24"/>
   <rect class="fil5" transform="matrix(0 -.66667 .66667 0 54944 26048)" width="2879" height="2879" fill="#e31e24"/>
   <rect class="fil2" transform="matrix(0 -.66667 .66667 0 53025 24129)" width="2879" height="2879" fill="#ffed00"/>
   <rect class="fil2" transform="matrix(0 -.66667 .66667 0 51106 22210)" width="2879" height="2879" fill="#ffed00"/>
   <rect class="fil2" transform="matrix(0 -.66667 .66667 0 53025 20291)" width="2879" height="2879" fill="#ffed00"/>
   <rect class="fil2" transform="matrix(0 -.66667 .66667 0 54944 22210)" width="2879" height="2879" fill="#ffed00"/>
   <rect class="fil5" transform="matrix(0 -.66667 .66667 0 51106 18372)" width="2879" height="2879" fill="#e31e24"/>
   <rect class="fil5" transform="matrix(0 -.68374 .66667 0 51106 6660.5)" width="2879" height="2879" fill="#e31e24"/>
   <rect class="fil5" transform="matrix(0 -.68374 .66667 0 51106 -5149)" width="2879" height="2879" fill="#e31e24"/>
   <rect class="fil5" transform="matrix(0 -.68374 .66667 0 51106 -16958)" width="2879" height="2879" fill="#e31e24"/>
   <rect class="fil5" transform="matrix(0 -.68374 .66667 0 51106 -28768)" width="2879" height="2879" fill="#e31e24"/>
   <rect class="fil5" transform="matrix(0 -.68374 .66667 0 51106 -40577)" width="2879" height="2879" fill="#e31e24"/>
   <rect class="fil5" transform="matrix(0 -.68374 .66667 0 51106 -52387)" width="2879" height="2879" fill="#e31e24"/>
   <rect class="fil5" transform="matrix(0 -.66667 .66667 0 54944 18372)" width="2879" height="2879" fill="#e31e24"/>
   <rect class="fil5" transform="matrix(0 -.68374 .66667 0 54944 6660.5)" width="2879" height="2879" fill="#e31e24"/>
   <rect class="fil5" transform="matrix(0 -.68374 .66667 0 54944 -5149)" width="2879" height="2879" fill="#e31e24"/>
   <rect class="fil5" transform="matrix(0 -.68374 .66667 0 54944 -16958)" width="2879" height="2879" fill="#e31e24"/>
   <rect class="fil5" transform="matrix(0 -.68374 .66667 0 54944 -28768)" width="2879" height="2879" fill="#e31e24"/>
   <rect class="fil5" transform="matrix(0 -.68374 .66667 0 54944 -40577)" width="2879" height="2879" fill="#e31e24"/>
   <rect class="fil5" transform="matrix(0 -.68374 .66667 0 54944 -52387)" width="2879" height="2879" fill="#e31e24"/>
   <rect class="fil2" transform="matrix(0 -.66667 .66667 0 53025 16453)" width="2879" height="2879" fill="#ffed00"/>
   <rect class="fil2" transform="matrix(0 -.68374 .66667 0 53025 4692.2)" width="2879" height="2879" fill="#ffed00"/>
   <rect class="fil2" transform="matrix(0 -.68374 .66667 0 53025 -7117.2)" width="2879" height="2879" fill="#ffed00"/>
   <rect class="fil2" transform="matrix(0 -.68374 .66667 0 53025 -18927)" width="2879" height="2879" fill="#ffed00"/>
   <rect class="fil2" transform="matrix(0 -.68374 .66667 0 53025 -30736)" width="2879" height="2879" fill="#ffed00"/>
   <rect class="fil2" transform="matrix(0 -.68374 .66667 0 53025 -42546)" width="2879" height="2879" fill="#ffed00"/>
   <rect class="fil2" transform="matrix(0 -.68374 .66667 0 53025 -54355)" width="2879" height="2879" fill="#ffed00"/>
   <rect class="fil5" transform="matrix(0 -.68374 .66667 0 51106 14534)" width="2879" height="2879" fill="#e31e24"/>
   <rect class="fil5" transform="matrix(0 -.68374 .66667 0 51106 2724)" width="2879" height="2879" fill="#e31e24"/>
   <rect class="fil5" transform="matrix(0 -.68374 .66667 0 51106 -9085.5)" width="2879" height="2879" fill="#e31e24"/>
   <rect class="fil5" transform="matrix(0 -.68374 .66667 0 51106 -20895)" width="2879" height="2879" fill="#e31e24"/>
   <rect class="fil5" transform="matrix(0 -.68374 .66667 0 51106 -32704)" width="2879" height="2879" fill="#e31e24"/>
   <rect class="fil5" transform="matrix(0 -.68374 .66667 0 51106 -44514)" width="2879" height="2879" fill="#e31e24"/>
   <rect class="fil5" transform="matrix(0 -.68374 .66667 0 51106 -56323)" width="2879" height="2879" fill="#e31e24"/>
   <rect class="fil5" transform="matrix(0 -.68374 .66667 0 54944 14534)" width="2879" height="2879" fill="#e31e24"/>
   <rect class="fil5" transform="matrix(0 -.68374 .66667 0 54944 2724)" width="2879" height="2879" fill="#e31e24"/>
   <rect class="fil5" transform="matrix(0 -.68374 .66667 0 54944 -9085.5)" width="2879" height="2879" fill="#e31e24"/>
   <rect class="fil5" transform="matrix(0 -.68374 .66667 0 54944 -20895)" width="2879" height="2879" fill="#e31e24"/>
   <rect class="fil5" transform="matrix(0 -.68374 .66667 0 54944 -32704)" width="2879" height="2879" fill="#e31e24"/>
   <rect class="fil5" transform="matrix(0 -.68374 .66667 0 54944 -44514)" width="2879" height="2879" fill="#e31e24"/>
   <rect class="fil5" transform="matrix(0 -.68374 .66667 0 54944 -56323)" width="2879" height="2879" fill="#e31e24"/>
   <rect class="fil2" transform="matrix(0 -.68374 .66667 0 53025 12565)" width="2879" height="2879" fill="#ffed00"/>
   <rect class="fil2" transform="matrix(0 -.68374 .66667 0 53025 755.74)" width="2879" height="2879" fill="#ffed00"/>
   <rect class="fil2" transform="matrix(0 -.68374 .66667 0 53025 -11054)" width="2879" height="2879" fill="#ffed00"/>
   <rect class="fil2" transform="matrix(0 -.68374 .66667 0 53025 -22863)" width="2879" height="2879" fill="#ffed00"/>
   <rect class="fil2" transform="matrix(0 -.68374 .66667 0 53025 -34673)" width="2879" height="2879" fill="#ffed00"/>
   <rect class="fil2" transform="matrix(0 -.68374 .66667 0 53025 -46482)" width="2879" height="2879" fill="#ffed00"/>
   <rect class="fil2" transform="matrix(0 -.68374 .66667 0 53025 -58292)" width="2879" height="2879" fill="#ffed00"/>
   <rect class="fil2" transform="matrix(0 -.68374 .66667 0 51106 10597)" width="2879" height="2879" fill="#ffed00"/>
   <rect class="fil2" transform="matrix(0 -.68374 .66667 0 51106 -1212.5)" width="2879" height="2879" fill="#ffed00"/>
   <rect class="fil2" transform="matrix(0 -.68374 .66667 0 51106 -13022)" width="2879" height="2879" fill="#ffed00"/>
   <rect class="fil2" transform="matrix(0 -.68374 .66667 0 51106 -24832)" width="2879" height="2879" fill="#ffed00"/>
   <rect class="fil2" transform="matrix(0 -.68374 .66667 0 51106 -36641)" width="2879" height="2879" fill="#ffed00"/>
   <rect class="fil2" transform="matrix(0 -.68374 .66667 0 51106 -48450)" width="2879" height="2879" fill="#ffed00"/>
   <rect class="fil2" transform="matrix(0 -.68374 .66667 0 51106 -60260)" width="2879" height="2879" fill="#ffed00"/>
   <rect class="fil2" transform="matrix(0 -.68374 .66667 0 53025 8628.7)" width="2879" height="2879" fill="#ffed00"/>
   <rect class="fil2" transform="matrix(0 -.68374 .66667 0 53025 -3180.8)" width="2879" height="2879" fill="#ffed00"/>
   <rect class="fil2" transform="matrix(0 -.68374 .66667 0 53025 -14990)" width="2879" height="2879" fill="#ffed00"/>
   <rect class="fil2" transform="matrix(0 -.68374 .66667 0 53025 -26800)" width="2879" height="2879" fill="#ffed00"/>
   <rect class="fil2" transform="matrix(0 -.68374 .66667 0 53025 -38609)" width="2879" height="2879" fill="#ffed00"/>
   <rect class="fil2" transform="matrix(0 -.68374 .66667 0 53025 -50419)" width="2879" height="2879" fill="#ffed00"/>
   <rect class="fil2" transform="matrix(0 -.68374 .66667 0 54944 10597)" width="2879" height="2879" fill="#ffed00"/>
   <rect class="fil2" transform="matrix(0 -.68374 .66667 0 54944 -1212.5)" width="2879" height="2879" fill="#ffed00"/>
   <rect class="fil2" transform="matrix(0 -.68374 .66667 0 54944 -13022)" width="2879" height="2879" fill="#ffed00"/>
   <rect class="fil2" transform="matrix(0 -.68374 .66667 0 54944 -24832)" width="2879" height="2879" fill="#ffed00"/>
   <rect class="fil2" transform="matrix(0 -.68374 .66667 0 54944 -36641)" width="2879" height="2879" fill="#ffed00"/>
   <rect class="fil2" transform="matrix(0 -.68374 .66667 0 54944 -48450)" width="2879" height="2879" fill="#ffed00"/>
   <rect class="fil2" transform="matrix(0 -.68374 .66667 0 54944 -60260)" width="2879" height="2879" fill="#ffed00"/>
  </g>
 </g>
</svg>
